<?xml version="1.0" encoding="utf-8"?>
<!-- Generator: Adobe Illustrator 26.0.2, SVG Export Plug-In . SVG Version: 6.00 Build 0)  -->
<svg version="1.1" id="Layer_1" xmlns="http://www.w3.org/2000/svg" xmlns:xlink="http://www.w3.org/1999/xlink" x="0px" y="0px"
	 width="141.2px" height="53.4px" viewBox="0 0 141.2 53.4" style="enable-background:new 0 0 141.2 53.4;" xml:space="preserve">
<style type="text/css">
	.st0{fill-rule:evenodd;clip-rule:evenodd;fill:#FFFFFF;}
	.st1{fill-rule:evenodd;clip-rule:evenodd;fill:#FCD700;}
	.st2{fill-rule:evenodd;clip-rule:evenodd;fill:#2F5A98;}
	.st3{fill-rule:evenodd;clip-rule:evenodd;fill:#E5E3E3;}
	.st4{fill-rule:evenodd;clip-rule:evenodd;fill:#F4F3F3;}
	.st5{fill-rule:evenodd;clip-rule:evenodd;fill:#DE0B15;}
	.st6{fill-rule:evenodd;clip-rule:evenodd;fill:#B31716;}
	.st7{fill-rule:evenodd;clip-rule:evenodd;fill:#C2C0BF;}
	.st8{fill-rule:evenodd;clip-rule:evenodd;fill:#807E7C;}
	.st9{fill-rule:evenodd;clip-rule:evenodd;fill:url(#SVGID_1_);}
	.st10{fill-rule:evenodd;clip-rule:evenodd;fill:url(#SVGID_00000054233534571274145080000003095431053655803835_);}
	.st11{fill-rule:evenodd;clip-rule:evenodd;fill:url(#SVGID_00000066504888969954189720000014170052757020448435_);}
	.st12{fill-rule:evenodd;clip-rule:evenodd;fill:url(#SVGID_00000063621146021728529710000007520965035219431341_);}
	.st13{fill-rule:evenodd;clip-rule:evenodd;fill:url(#SVGID_00000145755674653028034190000011879481661194325909_);}
	.st14{fill-rule:evenodd;clip-rule:evenodd;fill:url(#SVGID_00000181801183977583371100000000099427509082034106_);}
	.st15{fill-rule:evenodd;clip-rule:evenodd;fill:url(#SVGID_00000083088045265524495980000011633066045312959887_);}
	.st16{fill-rule:evenodd;clip-rule:evenodd;fill:url(#SVGID_00000029031174114640264610000004628826607461584270_);}
	.st17{fill-rule:evenodd;clip-rule:evenodd;fill:url(#SVGID_00000066475313388000002730000015494569008092659124_);}
	.st18{fill-rule:evenodd;clip-rule:evenodd;fill:url(#SVGID_00000126282766213966931180000015591867909426755234_);}
	.st19{fill-rule:evenodd;clip-rule:evenodd;fill:url(#SVGID_00000160167918451744278420000012227616577448870554_);}
	.st20{fill-rule:evenodd;clip-rule:evenodd;fill:url(#SVGID_00000168099146777650251940000007633856997583849398_);}
	.st21{fill-rule:evenodd;clip-rule:evenodd;fill:url(#SVGID_00000066487175842069819110000010023873886849633697_);}
	.st22{fill-rule:evenodd;clip-rule:evenodd;fill:url(#SVGID_00000123407632809407029390000008377573406322815377_);}
	.st23{fill-rule:evenodd;clip-rule:evenodd;fill:url(#SVGID_00000132066035709897354640000011440679103997268884_);}
	.st24{fill-rule:evenodd;clip-rule:evenodd;fill:url(#SVGID_00000054265447363507130590000000211020755516408455_);}
	.st25{fill-rule:evenodd;clip-rule:evenodd;fill:url(#SVGID_00000127756519928618832870000005389761784863585176_);}
	.st26{fill-rule:evenodd;clip-rule:evenodd;fill:url(#SVGID_00000048495440872904232850000015465603570473460632_);}
	.st27{fill-rule:evenodd;clip-rule:evenodd;fill:url(#SVGID_00000045598661722598842810000012179034755789566898_);}
	.st28{fill-rule:evenodd;clip-rule:evenodd;fill:url(#SVGID_00000058582405813512694280000000196479244728881049_);}
	.st29{fill-rule:evenodd;clip-rule:evenodd;fill:url(#SVGID_00000100361586355951189620000004481084695527600782_);}
	.st30{fill-rule:evenodd;clip-rule:evenodd;fill:url(#SVGID_00000176723567918805334680000017318940212007367811_);}
	.st31{fill-rule:evenodd;clip-rule:evenodd;fill:url(#SVGID_00000051358946021322748670000018015500926103361706_);}
	.st32{fill-rule:evenodd;clip-rule:evenodd;fill:url(#SVGID_00000014616086750390234110000018350742911617310109_);}
	.st33{fill-rule:evenodd;clip-rule:evenodd;fill:url(#SVGID_00000054945537525964236520000014247601820078892209_);}
	.st34{fill-rule:evenodd;clip-rule:evenodd;fill:url(#SVGID_00000176731241168031184710000016067789122859818168_);}
	.st35{fill-rule:evenodd;clip-rule:evenodd;fill:url(#SVGID_00000167386674953236565140000002478090602816500132_);}
	.st36{fill-rule:evenodd;clip-rule:evenodd;fill:url(#SVGID_00000000187659005617508210000015547421955234884011_);}
	.st37{fill-rule:evenodd;clip-rule:evenodd;fill:url(#SVGID_00000026867338957229729790000001875061819558826667_);}
	.st38{fill-rule:evenodd;clip-rule:evenodd;fill:url(#SVGID_00000061433203611342353130000004693839872047303307_);}
	.st39{fill-rule:evenodd;clip-rule:evenodd;fill:url(#SVGID_00000126317113614929979120000016924653899547227778_);}
	.st40{fill-rule:evenodd;clip-rule:evenodd;fill:url(#SVGID_00000167376323072575295430000009079268280398870944_);}
	.st41{fill-rule:evenodd;clip-rule:evenodd;fill:url(#SVGID_00000031206896348559995240000018348920401567361960_);}
	.st42{fill-rule:evenodd;clip-rule:evenodd;fill:url(#SVGID_00000011011179151288807300000001553916784525347468_);}
	.st43{fill-rule:evenodd;clip-rule:evenodd;fill:url(#SVGID_00000057848293040481716520000011124777952464555681_);}
	.st44{fill-rule:evenodd;clip-rule:evenodd;fill:url(#SVGID_00000091721109768414873820000002652031939390599838_);}
	.st45{fill-rule:evenodd;clip-rule:evenodd;fill:url(#SVGID_00000142135756188646202440000008770532676816945063_);}
	.st46{fill-rule:evenodd;clip-rule:evenodd;fill:url(#SVGID_00000096048063586814974140000000405597501097777539_);}
	.st47{fill-rule:evenodd;clip-rule:evenodd;fill:url(#SVGID_00000051379541787600202270000008296290794656302470_);}
	.st48{fill-rule:evenodd;clip-rule:evenodd;fill:url(#SVGID_00000003104362201165133460000013822471409821168542_);}
	.st49{fill-rule:evenodd;clip-rule:evenodd;fill:url(#SVGID_00000018958898847290409540000000911625349393362305_);}
	.st50{fill-rule:evenodd;clip-rule:evenodd;fill:url(#SVGID_00000104687469046127620270000006011468641491989154_);}
	.st51{fill-rule:evenodd;clip-rule:evenodd;fill:url(#SVGID_00000145026140558069635700000000891398096806971534_);}
	.st52{fill-rule:evenodd;clip-rule:evenodd;fill:url(#SVGID_00000138563469880512326620000002429395665194608004_);}
	.st53{fill-rule:evenodd;clip-rule:evenodd;fill:url(#SVGID_00000114779264873076361710000007537096395944598149_);}
	.st54{fill-rule:evenodd;clip-rule:evenodd;fill:url(#SVGID_00000006702124306136074040000000843981286812271540_);}
	.st55{fill-rule:evenodd;clip-rule:evenodd;fill:url(#SVGID_00000128474887188975940220000006532669003914436531_);}
	.st56{fill-rule:evenodd;clip-rule:evenodd;fill:url(#SVGID_00000091004532024902688300000017629499469265863587_);}
	.st57{fill-rule:evenodd;clip-rule:evenodd;fill:url(#SVGID_00000029728160438387920860000017877094641817117349_);}
	.st58{fill-rule:evenodd;clip-rule:evenodd;fill:url(#SVGID_00000003072464722860342960000001233824680462190476_);}
	.st59{fill-rule:evenodd;clip-rule:evenodd;fill:url(#SVGID_00000093876876302467154430000001773929260492254867_);}
	.st60{fill-rule:evenodd;clip-rule:evenodd;fill:url(#SVGID_00000014604592307369052240000010132207719803358362_);}
	.st61{fill-rule:evenodd;clip-rule:evenodd;fill:url(#SVGID_00000119103144081761376640000007642864588642132882_);}
	.st62{fill-rule:evenodd;clip-rule:evenodd;fill:url(#SVGID_00000106142605028749168920000013897890605259563917_);}
	.st63{fill-rule:evenodd;clip-rule:evenodd;fill:url(#SVGID_00000052818225259721226140000012933157319936345220_);}
	.st64{fill-rule:evenodd;clip-rule:evenodd;fill:url(#SVGID_00000126316531579559921130000002136268464179719615_);}
	.st65{fill-rule:evenodd;clip-rule:evenodd;fill:url(#SVGID_00000101075340999007367220000005355851904984994741_);}
	.st66{fill-rule:evenodd;clip-rule:evenodd;fill:url(#SVGID_00000160179809108764700450000003126269735826901945_);}
	.st67{fill-rule:evenodd;clip-rule:evenodd;fill:url(#SVGID_00000160192448425042673840000017645851186402273186_);}
	.st68{fill-rule:evenodd;clip-rule:evenodd;fill:url(#SVGID_00000113350344381590287500000006642628051486798730_);}
	.st69{fill-rule:evenodd;clip-rule:evenodd;fill:url(#SVGID_00000003788530929342977130000014512669422153759150_);}
	.st70{fill-rule:evenodd;clip-rule:evenodd;fill:url(#SVGID_00000137811956574977613140000008524601171181555603_);}
	.st71{fill-rule:evenodd;clip-rule:evenodd;fill:url(#SVGID_00000011004831320437038720000005708805227507619225_);}
	.st72{fill-rule:evenodd;clip-rule:evenodd;fill:url(#SVGID_00000129201910261428444020000011885459585783420552_);}
	.st73{fill-rule:evenodd;clip-rule:evenodd;fill:url(#SVGID_00000163031131960934772200000018132749042634198935_);}
	.st74{fill-rule:evenodd;clip-rule:evenodd;fill:url(#SVGID_00000155833647793902306020000012911331314228842168_);}
	.st75{fill-rule:evenodd;clip-rule:evenodd;fill:url(#SVGID_00000026133118097932203120000000126612590536910221_);}
	.st76{fill-rule:evenodd;clip-rule:evenodd;fill:url(#SVGID_00000068650033137066236840000004510606910349805190_);}
	.st77{fill-rule:evenodd;clip-rule:evenodd;fill:url(#SVGID_00000018194690937627578610000013299743273198246545_);}
	.st78{fill-rule:evenodd;clip-rule:evenodd;fill:url(#SVGID_00000134947722190829632070000009585610372771265428_);}
</style>
<polygon class="st0" points="13.1,15.2 31.6,15.2 31.6,46 21.5,46 21.5,25.4 13.1,25.4 "/>
<path class="st0" d="M76.3,15.2L86.2,46H75.7L74,40.7l-7.2,0c1.1-1.8,2-4.9,2.2-8l2.5,0l-5.7-17.5L76.3,15.2z"/>
<path class="st1" d="M34,46v-1.8c2.3,0,4.2-1.9,4.2-4.1c0-2.3-1.9-4.2-4.2-4.2v-3.8c0.8,0,1.5-0.7,1.5-1.5c0-0.8-0.7-1.5-1.5-1.5
	v-3.6c2.3,0,4.2-1.9,4.2-4.2c0-2.3-1.9-4.2-4.2-4.2v-2c0.5,0,0.9,0,1.4,0.1c5.2,0.5,9.7,3.5,12.1,7.9c1.2,2.2,1.9,4.7,1.9,7.4
	c0,2.7-0.7,5.3-2,7.5c-2.4,4.3-6.9,7.4-12.1,7.8C34.8,45.9,34.4,46,34,46L34,46L34,46z M42.5,26.4c-2.3,0-4.2,1.9-4.2,4.2
	c0,2.3,1.9,4.2,4.2,4.2c2.3,0,4.2-1.9,4.2-4.2C46.7,28.3,44.8,26.4,42.5,26.4z"/>
<ellipse class="st2" cx="108.3" cy="45.8" rx="9.7" ry="1.1"/>
<path class="st0" d="M49.6,23.1h0.4c6.9,0,7.5,5.4,7.5,7.4c0,2.9-0.9,7.7-6.8,7.7l-1.1,0c-1.8,4.5-6.1,7.9-6.2,7.9h7.9
	c10.8,0,15.8-6,15.8-15.5c0-7.8-3.6-15.4-13.9-15.4h-9.8C46.1,17.4,48.3,20.1,49.6,23.1z"/>
<path class="st0" d="M70.9,8.1v1h-0.6v1.1h0.6v1.9c0,0.7,0.1,1.1,0.4,1.4c0.2,0.2,0.6,0.4,1.1,0.4c0.4,0,0.8-0.1,0.9-0.1l0-1.1
	c-0.1,0-0.2,0-0.4,0c-0.4,0-0.6-0.3-0.6-0.8v-1.7l1,0V9.1l-1,0V7.8L70.9,8.1L70.9,8.1L70.9,8.1z M73.6,9.1l1.7,4.6h1.4l1.7-4.6h-1.5
	l-0.6,2.2c-0.1,0.4-0.2,0.8-0.3,1.1h0c-0.1-0.4-0.2-0.7-0.3-1.1l-0.6-2.2L73.6,9.1L73.6,9.1z"/>
<path class="st0" d="M78.7,13.5c0.4,0.2,1.1,0.4,1.8,0.4c1.8,0,2.6-0.9,2.6-2c0-0.9-0.5-1.5-1.7-1.9c-0.8-0.3-1.2-0.5-1.2-0.9
	c0-0.3,0.3-0.6,0.9-0.6c0.6,0,1.1,0.2,1.3,0.3l0.3-1.2c-0.4-0.2-0.9-0.3-1.6-0.3c-1.5,0-2.4,0.8-2.4,1.9c0,0.9,0.7,1.5,1.8,1.9
	c0.8,0.3,1.1,0.5,1.1,0.9c0,0.4-0.4,0.7-1,0.7c-0.6,0-1.2-0.2-1.6-0.4L78.7,13.5L78.7,13.5L78.7,13.5z M97.3,13.5
	c0.4,0.2,0.9,0.3,1.5,0.3c1.3,0,2-0.6,2-1.5c0-0.7-0.4-1.1-1.3-1.4c-0.6-0.2-0.8-0.3-0.8-0.5c0-0.2,0.2-0.4,0.6-0.4
	c0.4,0,0.8,0.2,1,0.3l0.3-1C100.3,9.1,99.8,9,99.3,9c-1.1,0-1.9,0.7-1.9,1.5c0,0.5,0.4,1.1,1.3,1.4c0.5,0.2,0.7,0.3,0.7,0.5
	c0,0.2-0.2,0.4-0.6,0.4c-0.4,0-1-0.2-1.2-0.4L97.3,13.5L97.3,13.5L97.3,13.5z M97.2,11.9c0-0.1,0-0.3,0-0.6c0-1.1-0.6-2.3-2.1-2.3
	c-1.6,0-2.3,1.3-2.3,2.5c0,1.5,0.9,2.4,2.5,2.4c0.6,0,1.2-0.1,1.7-0.3l-0.2-1c-0.4,0.1-0.8,0.2-1.3,0.2c-0.7,0-1.3-0.3-1.3-0.9
	L97.2,11.9L97.2,11.9L97.2,11.9z M94.2,10.9c0-0.4,0.3-0.9,0.9-0.9c0.7,0,0.8,0.6,0.8,0.9H94.2L94.2,10.9L94.2,10.9z M92.5,13.8V9.1
	H91v4.6L92.5,13.8L92.5,13.8L92.5,13.8z M91.8,7.1c-0.5,0-0.8,0.3-0.8,0.7c0,0.4,0.3,0.7,0.8,0.7c0.5,0,0.8-0.3,0.8-0.7
	C92.5,7.4,92.2,7.1,91.8,7.1L91.8,7.1L91.8,7.1z M88,13.8h1.4v-2.4c0-0.1,0-0.2,0-0.3c0.1-0.4,0.5-0.7,1-0.7c0.2,0,0.3,0,0.4,0
	l0-1.4c-0.1,0-0.2,0-0.3,0c-0.4,0-1,0.3-1.3,1h0l0-0.9h-1.2c0,0.4,0,0.8,0,1.5L88,13.8L88,13.8L88,13.8z M87.6,11.9
	c0-0.1,0-0.3,0-0.6c0-1.1-0.6-2.3-2.1-2.3c-1.6,0-2.3,1.3-2.3,2.5c0,1.5,0.9,2.4,2.5,2.4c0.6,0,1.2-0.1,1.7-0.3l-0.2-1
	c-0.4,0.1-0.8,0.2-1.3,0.2c-0.7,0-1.3-0.3-1.3-0.9L87.6,11.9L87.6,11.9L87.6,11.9z M84.6,10.9c0-0.4,0.3-0.9,0.9-0.9
	c0.7,0,0.8,0.6,0.8,0.9H84.6z"/>
<polygon class="st0" points="98.5,46 95.3,46 95.3,46 91.4,46 91.4,46 88.2,46 88.2,34.5 78,15.2 89.5,15.2 93.4,23 97.2,15.2 
	108.7,15.2 98.5,34.5 "/>
<g>
	<path class="st1" d="M118.1,6.9c-1.5-0.8-3.5-0.7-5,0.1c-2.4,1-3.9,5.4-0.7,6.1c1.2,0.3,2.1-0.6,2.4-1.6c0.4-1.3-0.9-1.4-1.4-0.4
		c-0.5,0.1-1.9-1.2-0.4-2.2c1.9-1.1,5-0.5,5.8,1.6c0.1,0.2,0.2,1.2-0.3,2c-0.4,0.6-0.9,1.1-1.5,1.5c-2.9,2.1-7.4,0.3-7.9-3.2
		c-0.5-2.5,1.9-4.6,4.3-4.4c0.7,0,1.3-1.3,0.5-1.5c-1.5-0.3-3,0.4-4.1,1.4c-4,3.3-1.7,10.1,3.4,10.4
		C118.1,17.4,123.8,10.1,118.1,6.9z"/>
	<path class="st1" d="M116.9,4.1c0.9,0.1,1-1,1.3-1.6c0.2-0.5,0.7-1.4,0-1.8c-0.8-0.1-1.4,1.3-1.6,1.9
		C116.6,3.1,116.3,3.8,116.9,4.1z"/>
	<path class="st1" d="M112.2,3.6c0.7-0.6,0.2-1.3,0-2c-0.1-0.4,0-1.5-0.7-1.3C110.1,0.6,110.8,5,112.2,3.6z"/>
	<path class="st1" d="M106.2,7c0.6,0.5,1.4-0.2,1.4-0.8c0.1-0.7-0.5-1-1-1.4c-0.4-0.3-0.8-0.7-1.3-0.9c-0.7-0.3-1.4,0.9-1,1.4
		C104.9,6,105.6,6.5,106.2,7z"/>
	<path class="st1" d="M105.9,12.2c0.5-0.2,0.8-1,0.5-1.4c-0.4-0.4-1-0.2-1.6-0.3c-0.5,0-0.9,0-1.5,0.1c-0.6,0.1-1.1,1.3-0.4,1.6
		C103.4,12.2,105.4,12.4,105.9,12.2z"/>
	<path class="st1" d="M106.9,15.4c-0.5,0.1-1.9,1-2.2,1.3c-0.7,0.5-0.5,1.9,0.5,1.3c0.4-0.3,2-1,2.3-1.5
		C107.8,16.3,107.5,15.3,106.9,15.4z"/>
	<path class="st1" d="M111.1,17.9c-0.9-0.3-1.2,1-1.3,1.6c-0.1,0.6-0.5,1.2-0.2,1.7c0.3,0.5,0.7,0.3,1,0c0.4-0.4,0.7-1.5,0.8-2
		C111.5,18.7,111.7,18.2,111.1,17.9z"/>
	<path class="st1" d="M116.5,17.9C116.5,18,116.5,18,116.5,17.9c-0.5-0.5-1.2,0.3-1.3,0.8c-0.1,0.6,0.7,3,1.5,2.8
		c0.4-0.1,0.8-0.6,0.8-1c0.1-0.6-0.3-0.9-0.5-1.4C116.9,18.8,116.8,18.3,116.5,17.9z"/>
	<path class="st1" d="M121.7,15.3c-0.6-0.4-1.4-1.3-2-0.4c-0.6,0.8,0.3,1.6,0.9,2.1c0.5,0.3,1,0.8,1.6,0.5c0.4-0.2,0.7-0.7,0.6-1.1
		C122.8,15.7,122.1,15.7,121.7,15.3z"/>
	<path class="st1" d="M123.5,9.5c-0.7,0-1.7-0.3-2,0.6c-0.1,0.2-0.2,0.9,0.1,1c1.1,0.3,3.3,0.6,3.5-1c0,0,0,0,0,0V9.8
		C125.1,9.1,124.1,9.5,123.5,9.5z"/>
	<path class="st1" d="M120.6,6.8c0.4-0.2,0.7-0.6,1.1-0.9c0.4-0.3,1-0.6,1.2-1.1c0.1-0.3,0.3-0.8-0.1-1c-0.7-0.4-2.6,1.5-2.8,2.2
		C119.8,6.5,120.1,7.1,120.6,6.8z"/>
</g>
<g>
	<path class="st3" d="M108,26.1c-0.9-0.2-2-0.8-2-0.8s0.9,0.5,1.7,1.7c1.3-0.6,2.3-0.6,2.3-0.6S108.9,26.3,108,26.1z"/>
	<path class="st3" d="M106,25.3L106,25.3L106,25.3c0,0-1,0.2-3.4,0.1h0c1.5,0.1,3.3,0.6,5.1,1.6l0,0C107,25.9,106.1,25.3,106,25.3z"
		/>
	<path class="st3" d="M111.2,37.3c0,0-0.7-6.4-3.5-10.3c6.2,2.3,10.5,7.9,10.5,7.9S114.5,35.3,111.2,37.3z"/>
	<path class="st3" d="M107.7,27c6.1,0.1,9.3,4.1,9.3,4.1s0,2,1.3,3.8C118.3,34.9,113.9,29.3,107.7,27z"/>
	<path class="st3" d="M110.1,26.4L110.1,26.4L110.1,26.4c0,0,0.8,0.7,2.9,1.8h0c-1.4-0.6-3.1-1.1-5.2-1.2l0,0
		C109,26.4,110,26.4,110.1,26.4z"/>
	<path class="st4" d="M107.7,27c-4.3,2-8.1,7.2-8.1,7.2s3.2,0.6,5.9,1.3c2.7,0.7,5.7,1.8,5.7,1.8S110.5,30.9,107.7,27z"/>
	<path class="st4" d="M99.6,34.2c0,0,3.8-5.2,8.1-7.2c-6.5-1.1-13.1,1.6-13.1,1.6S97.8,30.8,99.6,34.2z"/>
	<path class="st4" d="M107.7,27c-5.3-3-10.1-1.1-10.1-1.1s-1,1.7-3,2.7l0,0C94.7,28.6,101.2,25.9,107.7,27z"/>
	<path class="st5" d="M94.7,28.6l-0.1,0.3c-0.1,0.4,0,0.9,0.3,1.2c0.8,0.8,2.3,2.3,3.5,4.2c0.2,0.3,0.7,0.4,1,0.1l0.2-0.2
		C97.8,30.8,94.7,28.6,94.7,28.6z"/>
	<path class="st5" d="M106.2,26.8c0.1,0,0.5,0.2,0.7,0.6c0.3-0.1,0.5-0.3,0.8-0.4C107.2,26.9,106.7,26.8,106.2,26.8L106.2,26.8z
		 M101.6,26.9c0.2,0.1,1.8,0.7,2.7,2.3c0.2-0.2,0.5-0.4,0.7-0.5c-0.9-1.3-2.1-1.8-2.3-1.9C102.3,26.8,102,26.9,101.6,26.9
		L101.6,26.9z M103.8,26.7c0.4,0,0.8,0,1.2,0c0.1,0.1,0.7,0.3,1.3,1c-0.2,0.2-0.5,0.3-0.7,0.5C104.9,27.2,103.9,26.8,103.8,26.7
		L103.8,26.7z M95.6,28.3c0.2,0.1,3,2.1,4.7,5.1l0,0c0.2-0.2,0.4-0.5,0.7-0.8c-1.8-2.8-4.2-4.4-4.4-4.5
		C96.2,28.1,95.9,28.2,95.6,28.3L95.6,28.3z M99.5,27.2c0.3-0.1,0.7-0.1,1-0.2c0.2,0.1,1.8,0.8,3.1,2.7c-0.2,0.2-0.5,0.4-0.7,0.6
		C101.8,28.4,99.7,27.3,99.5,27.2L99.5,27.2z M97.5,27.7c0.3-0.1,0.6-0.2,1-0.2c0.2,0.1,2.3,1.2,3.9,3.6c-0.2,0.2-0.5,0.5-0.7,0.7
		C100.1,29.2,97.7,27.8,97.5,27.7z"/>
	<path class="st5" d="M102.4,25.4c-0.2,0.8-0.8,1.5-0.8,1.5l0,0c0.3,0,0.7-0.1,1.1-0.1c0.5-0.9,0.6-1.3,0.6-1.3
		C103,25.4,102.7,25.4,102.4,25.4L102.4,25.4z M104.3,25.7c-0.1,0.8-0.5,1.1-0.5,1.1c0.4,0,0.8,0,1.2,0l0,0c0.2-0.4,0.2-0.7,0.2-0.8
		C104.9,25.8,104.6,25.7,104.3,25.7L104.3,25.7z M107.7,27c-0.5-0.3-1-0.5-1.4-0.7c0,0.2-0.1,0.5-0.1,0.5
		C106.7,26.8,107.2,26.9,107.7,27L107.7,27z M100,25.4c-0.2,0-0.5,0.1-0.7,0.1c-0.5,1.3-1.8,2.2-1.8,2.2c0.3-0.1,0.6-0.2,1-0.2
		C99.7,26.4,100,25.5,100,25.4L100,25.4z M100.7,25.3c0.3,0,0.5,0,0.8,0c0,0.1-0.1,0.8-1,1.7c-0.4,0.1-0.7,0.1-1,0.2
		C99.5,27.2,100.5,26.3,100.7,25.3L100.7,25.3z M98.1,25.8c0.2,0,0.4-0.1,0.6-0.2c-0.1,0.1-0.7,1.3-2.2,2.3c-0.4,0.1-0.7,0.2-1,0.3
		C95.6,28.3,97.2,27.3,98.1,25.8z"/>
	<path class="st5" d="M105.5,35.5c-2.7-0.7-5.9-1.3-5.9-1.3c-0.2,0.7,0.2,1.4,1,1.6c1.2,0.3,2.9,0.7,4.5,1.1c1.6,0.4,3.3,1,4.5,1.3
		c0.7,0.2,1.4-0.2,1.6-0.9C111.2,37.3,108.2,36.2,105.5,35.5z"/>
	<path class="st5" d="M110.6,34.2c-0.1-0.3-0.1-0.6-0.2-1c-0.8-0.3-2.5-0.8-4-1.3c-1.5-0.4-3.3-0.8-4.1-0.9
		c-0.2,0.2-0.5,0.5-0.7,0.7c0,0,2.5,0.4,4.6,1C108.3,33.3,110.6,34.2,110.6,34.2L110.6,34.2z M110.9,35.1c0.1,0.4,0.1,0.8,0.2,1.1
		c0,0-2.8-1-5.3-1.7c-2.5-0.7-5.4-1.2-5.4-1.2c0.2-0.2,0.4-0.5,0.7-0.8c0.9,0.2,3.1,0.6,5,1.1C107.9,34.1,110,34.8,110.9,35.1
		L110.9,35.1z M110.2,32.3c0,0-1.9-0.7-3.5-1.2c-1.7-0.4-3.6-0.8-3.6-0.8c0.2-0.2,0.4-0.4,0.7-0.6c0.7,0.1,2,0.4,3.2,0.7
		c1.2,0.3,2.4,0.7,3.1,1C110,31.7,110.1,32,110.2,32.3L110.2,32.3z M109,29.2c-0.1-0.3-0.3-0.5-0.4-0.8c-0.3-0.1-0.7-0.3-1.1-0.4
		c-0.4-0.1-0.8-0.2-1.2-0.2c-0.2,0.2-0.5,0.3-0.7,0.5c0.3,0,1.1,0.1,1.7,0.3C108,28.8,108.7,29,109,29.2L109,29.2z M108.2,27.7
		c-0.2-0.3-0.3-0.5-0.5-0.8c-0.3,0.1-0.5,0.3-0.8,0.4c0.2,0,0.4,0,0.7,0.1C107.8,27.6,108.1,27.7,108.2,27.7L108.2,27.7z
		 M109.6,30.7c-0.1-0.3-0.2-0.5-0.3-0.8c-0.5-0.2-1.4-0.5-2.1-0.7c-0.8-0.2-1.7-0.4-2.2-0.5c-0.2,0.2-0.5,0.4-0.7,0.5
		c0,0,1.5,0.2,2.7,0.5C108.2,30.1,109.6,30.7,109.6,30.7z"/>
	<path class="st6" d="M107.2,26.4c-0.2,0.1-0.9-0.1-0.9-0.1l0,0c0.5,0.2,1,0.4,1.4,0.7l0,0C107.6,26.8,107.4,26.5,107.2,26.4
		L107.2,26.4z M106.5,25.6c-0.1,0-0.5,0.1-2.2,0l0,0c0.3,0.1,0.6,0.2,1,0.3h0c0,0,1.4,0.3,1.7,0.1C106.7,25.9,106.6,25.7,106.5,25.6
		L106.5,25.6z M106,25.3L106,25.3L106,25.3c0,0-1,0.2-3.4,0.1h0c0.2,0,0.4,0,0.6,0.1h0c0,0,1.9,0.1,2.9-0.1
		C106.1,25.3,106,25.3,106,25.3z"/>
	<path class="st6" d="M118.3,34.9l-0.1,0.3c-0.1,0.4-0.5,0.8-0.9,0.9c-1.1,0.3-3.1,0.8-5.1,1.9c-0.4,0.2-0.8,0-0.9-0.4l-0.1-0.3
		C114.5,35.3,118.3,34.9,118.3,34.9z"/>
	<path class="st6" d="M107.7,27c0.2,0.2,0.3,0.5,0.5,0.8c0.4-0.2,0.8-0.2,0.9-0.2C108.7,27.4,108.2,27.2,107.7,27L107.7,27z
		 M112.2,29.4c-0.2,0-1.4-0.2-2.9,0.5c0.1,0.3,0.2,0.5,0.3,0.8c1.6-0.9,3.3-0.7,3.5-0.7C112.8,29.8,112.5,29.6,112.2,29.4
		L112.2,29.4z M110.2,28.1c-0.2,0-0.8-0.1-1.6,0.2c0.1,0.3,0.3,0.5,0.4,0.8c1.2-0.6,2.2-0.4,2.3-0.4C111,28.5,110.6,28.3,110.2,28.1
		L110.2,28.1z M117,33.4c-0.3,0-3.2,0.2-6.1,1.7c0.1,0.4,0.1,0.8,0.2,1.1c3-1.7,6.4-2,6.6-2C117.5,34,117.2,33.7,117,33.4L117,33.4z
		 M114,30.7c0.3,0.2,0.5,0.4,0.8,0.7c-0.2,0-2.5-0.1-4.6,1l0,0c-0.1-0.3-0.2-0.6-0.3-0.9C112,30.4,113.8,30.6,114,30.7L114,30.7z
		 M115.6,32c0.3,0.2,0.5,0.5,0.7,0.7c-0.2,0-3,0-5.6,1.4c-0.1-0.3-0.1-0.6-0.2-1C113,31.9,115.4,32,115.6,32z"/>
	<path class="st6" d="M113.2,28.3c-0.2-0.1-0.5-0.2-0.8-0.3c0,0-0.2,0.4-0.2,1.4c0.3,0.2,0.6,0.4,0.9,0.6l0,0
		C113.1,30,112.9,29.1,113.2,28.3L113.2,28.3z M111.4,27.6c-0.3-0.1-0.6-0.2-1-0.3c-0.1,0.1-0.2,0.3-0.2,0.8l0,0
		c0.4,0.2,0.7,0.4,1.1,0.6C111.3,28.8,111.2,28.3,111.4,27.6L111.4,27.6z M107.7,27c0.5,0.2,1,0.4,1.4,0.6c0,0,0-0.3,0.2-0.5
		C108.8,27,108.3,27,107.7,27L107.7,27z M115.3,29.5c0,0.1-0.3,1,0.3,2.5c0.3,0.2,0.5,0.5,0.7,0.7c0,0-0.7-1.4-0.5-2.8
		C115.6,29.8,115.5,29.6,115.3,29.5L115.3,29.5z M114.7,29.1c-0.2-0.1-0.5-0.3-0.7-0.4c0,0.1-0.3,0.7,0,2c0.3,0.2,0.5,0.4,0.8,0.7
		C114.8,31.3,114.4,30,114.7,29.1L114.7,29.1z M116.7,30.7c0,1.8,1,3.4,1,3.4c-0.2-0.2-0.4-0.5-0.7-0.7c-0.8-1.7-0.7-3-0.7-3.1
		C116.4,30.5,116.6,30.6,116.7,30.7z"/>
	<path class="st6" d="M108.5,26.7c-0.2,0.1-0.5,0.2-0.8,0.3l0,0c0.6,0,1.1,0.1,1.6,0.1h0C109.3,27.1,108.6,26.9,108.5,26.7
		L108.5,26.7z M109,26.6c0.2-0.1,0.4-0.1,0.5-0.1c0,0,0.4,0.3,1.9,1.1h0c-0.3-0.1-0.6-0.2-1-0.3l0,0C110.5,27.3,109.1,26.8,109,26.6
		L109,26.6z M113,28.2c-2.1-1.1-2.9-1.8-2.9-1.8l0,0l0,0c0,0-0.1,0-0.1,0c0.7,0.7,2.4,1.5,2.4,1.5l0,0C112.6,28,112.8,28.1,113,28.2
		L113,28.2z"/>
	<path class="st6" d="M108,26.1c-0.9-0.2-2-0.8-2-0.8s0,0,0.1,0.1C106.1,25.4,107.1,25.9,108,26.1c0.9,0.3,2,0.3,2,0.3
		c0.1,0,0.1,0,0.1,0S108.9,26.3,108,26.1L108,26.1z M107.2,26.4c0.1,0.1,0.4,0.2,0.6,0.2c0.2,0.1,0.5,0.1,0.7,0.1l0,0
		c-0.2,0.1-0.5,0.2-0.8,0.3C107.6,26.8,107.4,26.5,107.2,26.4L107.2,26.4L107.2,26.4z M106.5,25.6c0,0,0.7,0.4,1.5,0.6
		c0.7,0.2,1.6,0.2,1.6,0.2l0,0c-0.2,0-0.3,0.1-0.5,0.1c0,0-0.6,0-1.1-0.1c-0.5-0.1-1-0.4-1-0.4C106.7,25.9,106.6,25.7,106.5,25.6
		L106.5,25.6z"/>
	<path class="st7" d="M105.3,36.9c-0.1,0-0.1,0-0.2-0.1c-0.1,0-0.1,0-0.2-0.1l-2.4,9c0,0,0.1,0.1,0.2,0.1c0.1,0,0.2,0,0.2,0
		L105.3,36.9z"/>
	<path class="st7" d="M108.1,26.7c0,0-0.1,0-0.2,0c-0.1,0-0.2-0.1-0.2-0.1l-0.1,0.4c0,0,0.1,0.1,0.2,0.1c0.1,0,0.2,0,0.2,0
		L108.1,26.7z"/>
	<path class="st8" d="M108.1,26.7c0,0-0.1,0-0.2,0c-0.1,0-0.2-0.1-0.2-0.1c0,0,0.1,0,0.2,0C108,26.6,108.1,26.6,108.1,26.7z"/>
	<path class="st8" d="M105.3,36.9c-0.1,0-0.1,0-0.2-0.1c-0.1,0-0.1,0-0.2-0.1l-0.5,1.8c0,0,0.1,0.1,0.2,0.1c0.1,0,0.2,0,0.2,0
		L105.3,36.9z"/>
</g>
<g>
	<linearGradient id="SVGID_1_" gradientUnits="userSpaceOnUse" x1="13.7104" y1="43.5766" x2="14.4417" y2="47.2875">
		<stop  offset="0" style="stop-color:#FFEC00"/>
		<stop  offset="1" style="stop-color:#FAB900"/>
	</linearGradient>
	<path class="st9" d="M14.1,42.5c3.2,0,6.1,1.3,6.5,3.3c0.2,0.9-13.5,1.4-13,0C8.3,43.8,11,42.5,14.1,42.5z"/>
	
		<radialGradient id="SVGID_00000035526068336166903180000013811576233239972503_" cx="12.5529" cy="43.403" r="1.7055" gradientTransform="matrix(1 0 0 0.3457 0 28.3986)" gradientUnits="userSpaceOnUse">
		<stop  offset="0" style="stop-color:#9D9872"/>
		<stop  offset="0.67" style="stop-color:#9D9872"/>
		<stop  offset="1" style="stop-color:#FFFFFF"/>
	</radialGradient>
	<path style="fill-rule:evenodd;clip-rule:evenodd;fill:url(#SVGID_00000035526068336166903180000013811576233239972503_);" d="
		M11.1,43.1c0.2-0.1,0.5-0.2,0.9-0.3C11.7,42.9,11.4,43,11.1,43.1z"/>
	
		<linearGradient id="SVGID_00000067197480631534342000000015888413653168040876_" gradientUnits="userSpaceOnUse" x1="14.1119" y1="42.8245" x2="11.4884" y2="41.6857">
		<stop  offset="0" style="stop-color:#B35402"/>
		<stop  offset="0.2395" style="stop-color:#AB4F02"/>
		<stop  offset="0.6135" style="stop-color:#954001"/>
		<stop  offset="1" style="stop-color:#772C00"/>
	</linearGradient>
	<path style="fill-rule:evenodd;clip-rule:evenodd;fill:url(#SVGID_00000067197480631534342000000015888413653168040876_);" d="
		M11.5,40.7c-0.3,1.2-0.5,2.1-0.4,2.7c0.3,0.5,2.7,0.5,3.1,0c0.1-0.6-0.1-1.5-0.3-2.7C13,40.7,12.3,40.7,11.5,40.7z"/>
	
		<linearGradient id="SVGID_00000170255237050555895010000010131334799343582911_" gradientUnits="userSpaceOnUse" x1="13.3321" y1="42.2987" x2="11.8283" y2="41.8522">
		<stop  offset="0" style="stop-color:#8D3500"/>
		<stop  offset="0.4031" style="stop-color:#8B3400"/>
		<stop  offset="0.6306" style="stop-color:#823000"/>
		<stop  offset="0.8142" style="stop-color:#752900"/>
		<stop  offset="0.9736" style="stop-color:#612000"/>
		<stop  offset="1" style="stop-color:#5D1E00"/>
	</linearGradient>
	<path style="fill-rule:evenodd;clip-rule:evenodd;fill:url(#SVGID_00000170255237050555895010000010131334799343582911_);" d="
		M11.8,40.7c0,0,1.4,0,1.9,0c-2,1.1-0.5,2.8-0.5,2.8c0,0-1.2,0.2-2-0.2C11.1,42.8,11.8,40.7,11.8,40.7z"/>
	
		<linearGradient id="SVGID_00000003092914017226634400000013384307028686790294_" gradientUnits="userSpaceOnUse" x1="14.094" y1="40.3246" x2="11.5614" y2="39.5289">
		<stop  offset="0" style="stop-color:#B35402"/>
		<stop  offset="0.2395" style="stop-color:#AB4F02"/>
		<stop  offset="0.6135" style="stop-color:#954001"/>
		<stop  offset="1" style="stop-color:#772C00"/>
	</linearGradient>
	<path style="fill-rule:evenodd;clip-rule:evenodd;fill:url(#SVGID_00000003092914017226634400000013384307028686790294_);" d="
		M11.5,38.6c-0.2,1.1-0.3,1.9-0.2,2.5c0.3,0.4,2.4,0.3,2.8-0.2c0.1-0.6-0.2-1.4-0.5-2.5C12.9,38.5,12.3,38.6,11.5,38.6z"/>
	
		<linearGradient id="SVGID_00000142885000723112314670000003057723444835303052_" gradientUnits="userSpaceOnUse" x1="13.4137" y1="39.9428" x2="11.8913" y2="39.6534">
		<stop  offset="0" style="stop-color:#8D3500"/>
		<stop  offset="0.4031" style="stop-color:#8B3400"/>
		<stop  offset="0.6306" style="stop-color:#823000"/>
		<stop  offset="0.8142" style="stop-color:#752900"/>
		<stop  offset="0.9736" style="stop-color:#612000"/>
		<stop  offset="1" style="stop-color:#5D1E00"/>
	</linearGradient>
	<path style="fill-rule:evenodd;clip-rule:evenodd;fill:url(#SVGID_00000142885000723112314670000003057723444835303052_);" d="
		M11.8,38.6c0,0,1.3-0.1,1.7-0.1c-1.7,1.2-0.3,2.7-0.3,2.7c0,0-1.1,0.3-1.8-0.1C11.4,40.6,11.8,38.6,11.8,38.6z"/>
	
		<linearGradient id="SVGID_00000150790132906051801190000007435463740892865951_" gradientUnits="userSpaceOnUse" x1="13.9183" y1="38.0401" x2="11.4672" y2="37.5011">
		<stop  offset="0" style="stop-color:#B35402"/>
		<stop  offset="0.2395" style="stop-color:#AB4F02"/>
		<stop  offset="0.6135" style="stop-color:#954001"/>
		<stop  offset="1" style="stop-color:#772C00"/>
	</linearGradient>
	<path style="fill-rule:evenodd;clip-rule:evenodd;fill:url(#SVGID_00000150790132906051801190000007435463740892865951_);" d="
		M11.5,36.6c-0.1,1-0.2,1.8,0,2.3c0.3,0.4,2.2,0.1,2.5-0.4c0-0.5-0.2-1.3-0.6-2.3C12.7,36.5,12.1,36.5,11.5,36.6z"/>
	
		<linearGradient id="SVGID_00000052064916563879306960000003638278895008384168_" gradientUnits="userSpaceOnUse" x1="13.3688" y1="37.7678" x2="11.7917" y2="37.5851">
		<stop  offset="0" style="stop-color:#8D3500"/>
		<stop  offset="0.4031" style="stop-color:#8B3400"/>
		<stop  offset="0.6306" style="stop-color:#823000"/>
		<stop  offset="0.8142" style="stop-color:#752900"/>
		<stop  offset="0.9736" style="stop-color:#612000"/>
		<stop  offset="1" style="stop-color:#5D1E00"/>
	</linearGradient>
	<path style="fill-rule:evenodd;clip-rule:evenodd;fill:url(#SVGID_00000052064916563879306960000003638278895008384168_);" d="
		M11.7,36.6c0,0,1.1-0.2,1.6-0.2c-1.4,1.2-0.1,2.5-0.1,2.5s-1,0.3-1.6,0C11.4,38.5,11.7,36.6,11.7,36.6z"/>
	
		<linearGradient id="SVGID_00000162332715948218346460000005542711748761629618_" gradientUnits="userSpaceOnUse" x1="13.6014" y1="35.9579" x2="11.2337" y2="35.607">
		<stop  offset="0" style="stop-color:#B35402"/>
		<stop  offset="0.2395" style="stop-color:#AB4F02"/>
		<stop  offset="0.6135" style="stop-color:#954001"/>
		<stop  offset="1" style="stop-color:#772C00"/>
	</linearGradient>
	<path style="fill-rule:evenodd;clip-rule:evenodd;fill:url(#SVGID_00000162332715948218346460000005542711748761629618_);" d="
		M11.3,34.8c0,1,0,1.7,0.2,2.2c0.3,0.3,2,0,2.2-0.5c0-0.5-0.3-1.2-0.7-2.1C12.4,34.6,11.8,34.7,11.3,34.8z"/>
	
		<linearGradient id="SVGID_00000021098378706425284900000000275371755086206082_" gradientUnits="userSpaceOnUse" x1="13.1136" y1="35.7656" x2="11.5438" y2="35.6453">
		<stop  offset="0" style="stop-color:#8D3500"/>
		<stop  offset="0.4031" style="stop-color:#8B3400"/>
		<stop  offset="0.6306" style="stop-color:#823000"/>
		<stop  offset="0.8142" style="stop-color:#752900"/>
		<stop  offset="0.9736" style="stop-color:#612000"/>
		<stop  offset="1" style="stop-color:#5D1E00"/>
	</linearGradient>
	<path style="fill-rule:evenodd;clip-rule:evenodd;fill:url(#SVGID_00000021098378706425284900000000275371755086206082_);" d="
		M11.5,34.8c0,0,1-0.2,1.4-0.3c-1.2,1.2,0.1,2.3,0.1,2.3s-0.9,0.4-1.5,0.1C11.4,36.5,11.5,34.8,11.5,34.8z"/>
	
		<linearGradient id="SVGID_00000156562041669565681740000017511148738060156054_" gradientUnits="userSpaceOnUse" x1="13.1686" y1="34.068" x2="10.9676" y2="33.8552">
		<stop  offset="0" style="stop-color:#B35402"/>
		<stop  offset="0.2395" style="stop-color:#AB4F02"/>
		<stop  offset="0.6135" style="stop-color:#954001"/>
		<stop  offset="1" style="stop-color:#772C00"/>
	</linearGradient>
	<path style="fill-rule:evenodd;clip-rule:evenodd;fill:url(#SVGID_00000156562041669565681740000017511148738060156054_);" d="
		M11,33.1c0.1,0.9,0.1,1.6,0.3,2c0.3,0.3,1.8-0.2,1.9-0.6c0-0.5-0.3-1.1-0.7-1.9C12,32.8,11.5,33,11,33.1z"/>
	
		<linearGradient id="SVGID_00000100381093456438299820000018329490759214875282_" gradientUnits="userSpaceOnUse" x1="12.7127" y1="33.9297" x2="11.1712" y2="33.8529">
		<stop  offset="0" style="stop-color:#8D3500"/>
		<stop  offset="0.4031" style="stop-color:#8B3400"/>
		<stop  offset="0.6306" style="stop-color:#823000"/>
		<stop  offset="0.8142" style="stop-color:#752900"/>
		<stop  offset="0.9736" style="stop-color:#612000"/>
		<stop  offset="1" style="stop-color:#5D1E00"/>
	</linearGradient>
	<path style="fill-rule:evenodd;clip-rule:evenodd;fill:url(#SVGID_00000100381093456438299820000018329490759214875282_);" d="
		M11.2,33.1c0,0,0.9-0.3,1.2-0.4c-1,1.2,0.3,2.1,0.3,2.1s-0.7,0.4-1.3,0.2C11.2,34.7,11.2,33.1,11.2,33.1z"/>
	
		<linearGradient id="SVGID_00000002342615389174683350000002882240949470512829_" gradientUnits="userSpaceOnUse" x1="12.664" y1="32.3451" x2="10.6378" y2="32.2463">
		<stop  offset="0" style="stop-color:#B35402"/>
		<stop  offset="0.2395" style="stop-color:#AB4F02"/>
		<stop  offset="0.6135" style="stop-color:#954001"/>
		<stop  offset="1" style="stop-color:#772C00"/>
	</linearGradient>
	<path style="fill-rule:evenodd;clip-rule:evenodd;fill:url(#SVGID_00000002342615389174683350000002882240949470512829_);" d="
		M10.6,31.6c0.1,0.8,0.2,1.5,0.4,1.8c0.3,0.2,1.6-0.3,1.7-0.7c-0.1-0.4-0.4-1-0.8-1.7C11.5,31.3,11.1,31.4,10.6,31.6z"/>
	
		<linearGradient id="SVGID_00000154404930863183469540000015219582483462836870_" gradientUnits="userSpaceOnUse" x1="12.2278" y1="32.2528" x2="10.814" y2="32.2144">
		<stop  offset="0" style="stop-color:#8D3500"/>
		<stop  offset="0.4031" style="stop-color:#8B3400"/>
		<stop  offset="0.6306" style="stop-color:#823000"/>
		<stop  offset="0.8142" style="stop-color:#752900"/>
		<stop  offset="0.9736" style="stop-color:#612000"/>
		<stop  offset="1" style="stop-color:#5D1E00"/>
	</linearGradient>
	<path style="fill-rule:evenodd;clip-rule:evenodd;fill:url(#SVGID_00000154404930863183469540000015219582483462836870_);" d="
		M10.8,31.5c0,0,0.8-0.3,1.1-0.4c-0.8,1.2,0.4,2,0.4,2s-0.6,0.4-1.1,0.3C10.9,33,10.8,31.5,10.8,31.5z"/>
	
		<linearGradient id="SVGID_00000130608195318241912080000017628865702254961849_" gradientUnits="userSpaceOnUse" x1="12.1068" y1="30.7781" x2="10.2308" y2="30.7748">
		<stop  offset="0" style="stop-color:#B35402"/>
		<stop  offset="0.2395" style="stop-color:#AB4F02"/>
		<stop  offset="0.6135" style="stop-color:#954001"/>
		<stop  offset="1" style="stop-color:#772C00"/>
	</linearGradient>
	<path style="fill-rule:evenodd;clip-rule:evenodd;fill:url(#SVGID_00000130608195318241912080000017628865702254961849_);" d="
		M10.2,30.2c0.2,0.8,0.3,1.3,0.5,1.7c0.3,0.2,1.4-0.3,1.5-0.7c-0.1-0.4-0.4-0.9-0.8-1.5C10.9,29.8,10.6,30,10.2,30.2z"/>
	
		<linearGradient id="SVGID_00000006684033363757604810000008444568351684942774_" gradientUnits="userSpaceOnUse" x1="11.6848" y1="30.7243" x2="10.3946" y2="30.723">
		<stop  offset="0" style="stop-color:#8D3500"/>
		<stop  offset="0.4031" style="stop-color:#8B3400"/>
		<stop  offset="0.6306" style="stop-color:#823000"/>
		<stop  offset="0.8142" style="stop-color:#752900"/>
		<stop  offset="0.9736" style="stop-color:#612000"/>
		<stop  offset="1" style="stop-color:#5D1E00"/>
	</linearGradient>
	<path style="fill-rule:evenodd;clip-rule:evenodd;fill:url(#SVGID_00000006684033363757604810000008444568351684942774_);" d="
		M10.3,30.1c0,0,0.7-0.3,0.9-0.5c-0.7,1.1,0.5,1.8,0.5,1.8s-0.6,0.4-1,0.3C10.5,31.5,10.3,30.1,10.3,30.1z"/>
	
		<linearGradient id="SVGID_00000073720457306632145590000015119939464736475292_" gradientUnits="userSpaceOnUse" x1="11.4228" y1="29.362" x2="9.8496" y2="29.432">
		<stop  offset="0" style="stop-color:#B35402"/>
		<stop  offset="0.2395" style="stop-color:#AB4F02"/>
		<stop  offset="0.6135" style="stop-color:#954001"/>
		<stop  offset="1" style="stop-color:#772C00"/>
	</linearGradient>
	<path style="fill-rule:evenodd;clip-rule:evenodd;fill:url(#SVGID_00000073720457306632145590000015119939464736475292_);" d="
		M9.7,28.9c0.2,0.7,0.3,1.2,0.5,1.5c0.2,0.2,1.2-0.4,1.3-0.8c-0.1-0.4-0.4-0.8-0.8-1.4C10.4,28.5,10,28.7,9.7,28.9z"/>
	
		<linearGradient id="SVGID_00000122707902791607492410000003267397766848275351_" gradientUnits="userSpaceOnUse" x1="11.0516" y1="29.338" x2="9.967" y2="29.3693">
		<stop  offset="0" style="stop-color:#8D3500"/>
		<stop  offset="0.4031" style="stop-color:#8B3400"/>
		<stop  offset="0.6306" style="stop-color:#823000"/>
		<stop  offset="0.8142" style="stop-color:#752900"/>
		<stop  offset="0.9736" style="stop-color:#612000"/>
		<stop  offset="1" style="stop-color:#5D1E00"/>
	</linearGradient>
	<path style="fill-rule:evenodd;clip-rule:evenodd;fill:url(#SVGID_00000122707902791607492410000003267397766848275351_);" d="
		M9.8,28.8c0,0,0.6-0.4,0.8-0.5c-0.5,1.1,0.5,1.6,0.5,1.6s-0.5,0.4-0.9,0.4C10.1,30.1,9.8,28.8,9.8,28.8z"/>
	
		<linearGradient id="SVGID_00000050642194980245779710000005796389356256518327_" gradientUnits="userSpaceOnUse" x1="10.727" y1="28.091" x2="9.4078" y2="28.2106">
		<stop  offset="0" style="stop-color:#B35402"/>
		<stop  offset="0.2395" style="stop-color:#AB4F02"/>
		<stop  offset="0.6135" style="stop-color:#954001"/>
		<stop  offset="1" style="stop-color:#772C00"/>
	</linearGradient>
	<path style="fill-rule:evenodd;clip-rule:evenodd;fill:url(#SVGID_00000050642194980245779710000005796389356256518327_);" d="
		M9.2,27.8c0.2,0.6,0.4,1.1,0.6,1.4c0.2,0.1,1.1-0.5,1.1-0.8c-0.1-0.3-0.4-0.7-0.8-1.2C9.8,27.4,9.5,27.5,9.2,27.8z"/>
	
		<linearGradient id="SVGID_00000077299180823249628740000007673780179481595309_" gradientUnits="userSpaceOnUse" x1="10.3965" y1="28.0879" x2="9.4914" y2="28.1451">
		<stop  offset="0" style="stop-color:#8D3500"/>
		<stop  offset="0.4031" style="stop-color:#8B3400"/>
		<stop  offset="0.6306" style="stop-color:#823000"/>
		<stop  offset="0.8142" style="stop-color:#752900"/>
		<stop  offset="0.9736" style="stop-color:#612000"/>
		<stop  offset="1" style="stop-color:#5D1E00"/>
	</linearGradient>
	<path style="fill-rule:evenodd;clip-rule:evenodd;fill:url(#SVGID_00000077299180823249628740000007673780179481595309_);" d="
		M9.3,27.7c0,0,0.5-0.4,0.7-0.5c-0.4,1.1,0.6,1.5,0.6,1.5s-0.4,0.4-0.8,0.4C9.6,28.8,9.3,27.7,9.3,27.7z"/>
	
		<linearGradient id="SVGID_00000093136333275336233980000000033152684866489509_" gradientUnits="userSpaceOnUse" x1="10.0284" y1="26.9541" x2="8.9197" y2="27.1066">
		<stop  offset="0" style="stop-color:#B35402"/>
		<stop  offset="0.2395" style="stop-color:#AB4F02"/>
		<stop  offset="0.6135" style="stop-color:#954001"/>
		<stop  offset="1" style="stop-color:#772C00"/>
	</linearGradient>
	<path style="fill-rule:evenodd;clip-rule:evenodd;fill:url(#SVGID_00000093136333275336233980000000033152684866489509_);" d="
		M8.7,26.7c0.2,0.6,0.4,1,0.6,1.3c0.2,0.1,0.9-0.5,0.9-0.8c-0.1-0.3-0.4-0.6-0.8-1.1C9.1,26.3,8.9,26.5,8.7,26.7z"/>
	
		<linearGradient id="SVGID_00000121240148777909388880000000658320766015321509_" gradientUnits="userSpaceOnUse" x1="9.7331" y1="26.9664" x2="8.9792" y2="27.043">
		<stop  offset="0" style="stop-color:#8D3500"/>
		<stop  offset="0.4031" style="stop-color:#8B3400"/>
		<stop  offset="0.6306" style="stop-color:#823000"/>
		<stop  offset="0.8142" style="stop-color:#752900"/>
		<stop  offset="0.9736" style="stop-color:#612000"/>
		<stop  offset="1" style="stop-color:#5D1E00"/>
	</linearGradient>
	<path style="fill-rule:evenodd;clip-rule:evenodd;fill:url(#SVGID_00000121240148777909388880000000658320766015321509_);" d="
		M8.8,26.6c0,0,0.4-0.4,0.6-0.5c-0.3,1,0.6,1.3,0.6,1.3s-0.3,0.4-0.7,0.4C9.1,27.7,8.8,26.6,8.8,26.6z"/>
	
		<linearGradient id="SVGID_00000006673498341502836420000004605310978652540586_" gradientUnits="userSpaceOnUse" x1="9.3223" y1="25.9426" x2="8.4009" y2="26.1157">
		<stop  offset="0" style="stop-color:#B35402"/>
		<stop  offset="0.2395" style="stop-color:#AB4F02"/>
		<stop  offset="0.6135" style="stop-color:#954001"/>
		<stop  offset="1" style="stop-color:#772C00"/>
	</linearGradient>
	<path style="fill-rule:evenodd;clip-rule:evenodd;fill:url(#SVGID_00000006673498341502836420000004605310978652540586_);" d="
		M8.1,25.8c0.3,0.5,0.4,0.9,0.6,1.1c0.2,0.1,0.8-0.5,0.8-0.8c-0.1-0.3-0.4-0.6-0.8-0.9C8.5,25.4,8.3,25.6,8.1,25.8z"/>
	
		<linearGradient id="SVGID_00000096058341928685998380000002464877811547490234_" gradientUnits="userSpaceOnUse" x1="9.0711" y1="25.965" x2="8.4431" y2="26.0553">
		<stop  offset="0" style="stop-color:#8D3500"/>
		<stop  offset="0.4031" style="stop-color:#8B3400"/>
		<stop  offset="0.6306" style="stop-color:#823000"/>
		<stop  offset="0.8142" style="stop-color:#752900"/>
		<stop  offset="0.9736" style="stop-color:#612000"/>
		<stop  offset="1" style="stop-color:#5D1E00"/>
	</linearGradient>
	<path style="fill-rule:evenodd;clip-rule:evenodd;fill:url(#SVGID_00000096058341928685998380000002464877811547490234_);" d="
		M8.2,25.7c0,0,0.4-0.4,0.5-0.5c-0.2,0.9,0.6,1.2,0.6,1.2s-0.3,0.4-0.6,0.4C8.6,26.7,8.2,25.7,8.2,25.7z"/>
	
		<linearGradient id="SVGID_00000065776854901907010610000012331748408151537836_" gradientUnits="userSpaceOnUse" x1="8.6899" y1="26.013" x2="16.0267" y2="26.013">
		<stop  offset="0" style="stop-color:#4D9228"/>
		<stop  offset="0.3186" style="stop-color:#5D9F27"/>
		<stop  offset="1" style="stop-color:#7CB826"/>
	</linearGradient>
	<path style="fill-rule:evenodd;clip-rule:evenodd;fill:url(#SVGID_00000065776854901907010610000012331748408151537836_);" d="
		M8.3,25C8,24.6,9.6,23.5,12,24c-0.1,0.1-0.3,0.2-0.4,0.3c0.9-0.1,2.2,0.3,3.1,0.9c-0.2,0-0.3,0-0.5,0.1c0.5,0.2,0.8,0.6,1.1,0.9
		c-0.2,0-0.3,0.1-0.4,0.1c0.7,0.4,1.1,1.2,1.1,1.8c0,0-0.4-1-1.8-0.9c0,0,0,0.2,0.1,0.3c0.1,0-1.7-0.2-1.9-0.4c0,0,0,0.2,0.2,0.3
		c0,0-2.1,0.3-2.6-0.5c0,0,0,0.2,0.2,0.4C9.8,27.4,7.7,26,8.3,25z"/>
	
		<linearGradient id="SVGID_00000145779640497808382400000014055222715850011785_" gradientUnits="userSpaceOnUse" x1="11.0911" y1="24.5958" x2="13.2561" y2="29.4797">
		<stop  offset="0" style="stop-color:#20460E"/>
		<stop  offset="0.2614" style="stop-color:#295513"/>
		<stop  offset="0.7644" style="stop-color:#417D21"/>
		<stop  offset="1" style="stop-color:#4D9228"/>
	</linearGradient>
	<path style="fill-rule:evenodd;clip-rule:evenodd;fill:url(#SVGID_00000145779640497808382400000014055222715850011785_);" d="
		M8.3,25c4.5-0.4,7.4,2,7.7,3.2c0,0-0.4-1-1.8-0.9c0,0,0,0.2,0.1,0.3c0.1,0-1.7-0.2-1.9-0.4c0,0,0,0.2,0.2,0.3c0,0-2.1,0.3-2.6-0.5
		c0,0,0,0.2,0.2,0.4C9.7,27.4,7.7,26,8.3,25z"/>
	
		<linearGradient id="SVGID_00000037662436210004652650000002721384759644240779_" gradientUnits="userSpaceOnUse" x1="1.5371" y1="27.2631" x2="7.2828" y2="27.2631">
		<stop  offset="0" style="stop-color:#6FB52A"/>
		<stop  offset="5.004591e-02" style="stop-color:#6AAE29"/>
		<stop  offset="0.2689" style="stop-color:#5A9524"/>
		<stop  offset="0.4957" style="stop-color:#4E8220"/>
		<stop  offset="0.7335" style="stop-color:#46781E"/>
		<stop  offset="1" style="stop-color:#44741D"/>
	</linearGradient>
	<path style="fill-rule:evenodd;clip-rule:evenodd;fill:url(#SVGID_00000037662436210004652650000002721384759644240779_);" d="
		M6.5,25.9c0.7-0.6,1.3-0.9,1.1-1.4c0.6-0.6-1.8-1.2-3.6-0.2c-1.8,1-3.2,3.5-2.7,6.5c0,0,1.2-1.3,1.7-2.4c0,0.3,0.1,0.4,0.1,0.9
		C4,28.2,3.9,27.5,4,27c0,0,0.2,0.7,0,1.2c0,0,1.1-0.8,1.2-1.7c0,0,0.1,0.4,0.1,0.8C5.8,26.7,6.2,26.2,6.5,25.9z"/>
	
		<linearGradient id="SVGID_00000134229117705408317400000003423023370343897512_" gradientUnits="userSpaceOnUse" x1="0.9004" y1="30.155" x2="6.8687" y2="24.2459">
		<stop  offset="0" style="stop-color:#4D9228"/>
		<stop  offset="0.2356" style="stop-color:#417D21"/>
		<stop  offset="0.7386" style="stop-color:#295513"/>
		<stop  offset="1" style="stop-color:#20460E"/>
	</linearGradient>
	<path style="fill-rule:evenodd;clip-rule:evenodd;fill:url(#SVGID_00000134229117705408317400000003423023370343897512_);" d="
		M6.5,25.9c0.7-0.6,1.3-0.9,1.1-1.4c-0.3-0.3-5.5-0.1-6.3,6.3c0,0,1.2-1.3,1.7-2.4c0,0.3,0.1,0.4,0.1,0.9C4,28.2,3.9,27.5,4,27
		c0,0,0.2,0.7,0,1.2c0,0,1.1-0.8,1.2-1.7c0,0,0.1,0.4,0.1,0.8C5.8,26.7,6.2,26.2,6.5,25.9z"/>
	
		<linearGradient id="SVGID_00000067950090818384894230000005476668210596048575_" gradientUnits="userSpaceOnUse" x1="4.6231" y1="22.0231" x2="2.2961" y2="24.292">
		<stop  offset="0" style="stop-color:#20460E"/>
		<stop  offset="0.2614" style="stop-color:#295513"/>
		<stop  offset="0.7644" style="stop-color:#417D21"/>
		<stop  offset="1" style="stop-color:#4D9228"/>
	</linearGradient>
	<path style="fill-rule:evenodd;clip-rule:evenodd;fill:url(#SVGID_00000067950090818384894230000005476668210596048575_);" d="
		M4.9,21.9c0.1-0.1-0.2-0.2-0.3-0.3c0,0-1.9,1.1-2,3C3.2,24.2,4.1,22.6,4.9,21.9z"/>
	
		<linearGradient id="SVGID_00000021840152599550999680000016645790224243852166_" gradientUnits="userSpaceOnUse" x1="4.9028" y1="22.1708" x2="7.3168" y2="24.6327">
		<stop  offset="0" style="stop-color:#75B628"/>
		<stop  offset="0.4454" style="stop-color:#4A7D1B"/>
		<stop  offset="0.8109" style="stop-color:#2C5512"/>
		<stop  offset="1" style="stop-color:#20460E"/>
	</linearGradient>
	<path style="fill-rule:evenodd;clip-rule:evenodd;fill:url(#SVGID_00000021840152599550999680000016645790224243852166_);" d="
		M4.5,21.1c-0.9,0.6-1.7,1.7-1.9,3.6c0,0,0.4-2.2,1.9-2.5c0,0-0.3,0.2-0.4,0.7c0,0,0.6-0.3,1.5-0.2c0,0-0.5,0.2-0.6,0.8
		c0,0,1.1-0.1,1.7,0.4c0.5,0.4,0.8,1.5,1.3,1.3c0.8-0.2,1.4-3.2,0.8-4c0,0,0,0.3-0.1,0.5c0,0-0.7-1.2-2.1-1.3c0,0,0.2,0.3,0.2,0.3
		C6.4,20.5,5.4,20.4,4.5,21.1z"/>
	
		<linearGradient id="SVGID_00000063613791480287965710000007343474144743014797_" gradientUnits="userSpaceOnUse" x1="6.1674" y1="20.9735" x2="7.1252" y2="25.0472">
		<stop  offset="0" style="stop-color:#7CB826"/>
		<stop  offset="0.6814" style="stop-color:#5D9F27"/>
		<stop  offset="1" style="stop-color:#4D9228"/>
	</linearGradient>
	<path style="fill-rule:evenodd;clip-rule:evenodd;fill:url(#SVGID_00000063613791480287965710000007343474144743014797_);" d="
		M4.5,21.1c-0.2,0.1-0.5,0.3-0.7,0.6c1.2-0.8,2.5-0.4,3.2,0.1c1.2,0.8,1.4,2.6,0.8,3.4c0.8-0.2,1.4-3.2,0.8-4c0,0,0,0.3-0.1,0.5
		c0,0-0.7-1.2-2.1-1.3c0,0,0.2,0.3,0.2,0.3C6.4,20.5,5.4,20.4,4.5,21.1z"/>
	
		<linearGradient id="SVGID_00000141439974683351926450000012563471403738606522_" gradientUnits="userSpaceOnUse" x1="8.311" y1="22.6408" x2="15.1797" y2="22.6408">
		<stop  offset="0" style="stop-color:#4D9228"/>
		<stop  offset="0.3186" style="stop-color:#5D9F27"/>
		<stop  offset="1" style="stop-color:#7CB826"/>
	</linearGradient>
	<path style="fill-rule:evenodd;clip-rule:evenodd;fill:url(#SVGID_00000141439974683351926450000012563471403738606522_);" d="
		M8,24.8c-0.6-0.2,0.6-3.1,2.5-4c1.9-0.9,4.2-0.3,4.6,0c-0.9,0-1.3,0.2-1.7,0.4c0,0,0.3,0,0.5,0c0,0-1,1.4-1.8,1.6l0.4,0.1
		c0,0-0.9,1.2-2.4,1.2l0.3,0.2C10.5,24.3,8.6,25.3,8,24.8z"/>
	
		<linearGradient id="SVGID_00000031208827192894483410000007137974453883277453_" gradientUnits="userSpaceOnUse" x1="9.4588" y1="25.2509" x2="13.5662" y2="20.1174">
		<stop  offset="0" style="stop-color:#20460E"/>
		<stop  offset="0.1891" style="stop-color:#2C5512"/>
		<stop  offset="0.5546" style="stop-color:#4A7D1B"/>
		<stop  offset="1" style="stop-color:#75B628"/>
	</linearGradient>
	<path style="fill-rule:evenodd;clip-rule:evenodd;fill:url(#SVGID_00000031208827192894483410000007137974453883277453_);" d="
		M8,24.8c1.2-2.6,3.5-4.8,7.1-4c-0.9,0-1.3,0.2-1.7,0.4c0,0,0.3,0,0.5,0c0,0-1,1.4-1.8,1.6l0.4,0.1c0,0-0.9,1.2-2.4,1.2l0.3,0.2
		C10.5,24.3,8.6,25.3,8,24.8z"/>
	
		<linearGradient id="SVGID_00000052063177077077872320000007542316003508071042_" gradientUnits="userSpaceOnUse" x1="6.592" y1="34.2654" x2="6.592" y2="24.8912">
		<stop  offset="0" style="stop-color:#7CB826"/>
		<stop  offset="0.6814" style="stop-color:#5D9F27"/>
		<stop  offset="1" style="stop-color:#4D9228"/>
	</linearGradient>
	<path style="fill-rule:evenodd;clip-rule:evenodd;fill:url(#SVGID_00000052063177077077872320000007542316003508071042_);" d="
		M5.9,30.2c0.2,0.4,0.3,0.6,0.4,1.3c0.2-0.6,0.5-2.6,0.8-3.3c0.1,0.3,0.3,0.4,0.3,1.1c0.2-0.5,0.3-1.2,0.5-1.6C8,27.8,8,27.9,8,28.1
		c0.8-0.5,0.8-3.7-0.1-3.3c-0.6-0.3-2.1,0.2-2.8,2c-0.5,1.2-1,5.2,0.3,7.6C5.4,34.3,6.1,32,5.9,30.2z"/>
	
		<linearGradient id="SVGID_00000087404931082170520270000002527414329519302797_" gradientUnits="userSpaceOnUse" x1="6.8416" y1="34.2654" x2="6.8416" y2="25.0059">
		<stop  offset="0" style="stop-color:#4D9228"/>
		<stop  offset="0.2356" style="stop-color:#417D21"/>
		<stop  offset="0.7386" style="stop-color:#295513"/>
		<stop  offset="1" style="stop-color:#20460E"/>
	</linearGradient>
	<path style="fill-rule:evenodd;clip-rule:evenodd;fill:url(#SVGID_00000087404931082170520270000002527414329519302797_);" d="
		M5.9,30.2c0.2,0.4,0.3,0.7,0.4,1.3C6.8,30.6,7,29.1,7,28.2c0.2,0.3,0.3,0.5,0.3,1.1c0.2-0.5,0.4-1,0.5-1.6C8,27.8,8,27.9,8,28.1
		c0.8-0.5,0.8-3.7-0.1-3.3c-2.2,1.2-3.6,5.9-2.5,9.6C5.4,34.3,6.2,31.8,5.9,30.2z"/>
	
		<linearGradient id="SVGID_00000054965762794381669580000001072076278158954671_" gradientUnits="userSpaceOnUse" x1="17.4195" y1="30.7763" x2="11.7389" y2="30.7763">
		<stop  offset="0" style="stop-color:#6FB52A"/>
		<stop  offset="5.004591e-02" style="stop-color:#6AAE29"/>
		<stop  offset="0.2689" style="stop-color:#5A9524"/>
		<stop  offset="0.4957" style="stop-color:#4E8220"/>
		<stop  offset="0.7335" style="stop-color:#46781E"/>
		<stop  offset="1" style="stop-color:#44741D"/>
	</linearGradient>
	<path style="fill-rule:evenodd;clip-rule:evenodd;fill:url(#SVGID_00000054965762794381669580000001072076278158954671_);" d="
		M17.7,30c0.2-0.3-1-1.2-2.8-0.8c0.1,0.1,0.2,0.2,0.3,0.2c-0.7-0.1-1.7,0.2-2.4,0.7c0.1,0,0.2,0,0.4,0.1c-0.4,0.2-0.6,0.5-0.8,0.7
		c0.1,0,0.2,0,0.3,0.1c-0.5,0.3-0.8,1-0.8,1.4c0,0,0.3-0.8,1.4-0.7c0,0,0,0.1-0.1,0.2c0,0,1.3-0.2,1.5-0.3c0,0,0,0.1-0.1,0.2
		c0,0,1.6,0.2,2-0.4c0,0,0,0.1-0.1,0.3C16.6,31.8,18.2,30.8,17.7,30z"/>
	
		<linearGradient id="SVGID_00000108283411723590833710000004813016939339401626_" gradientUnits="userSpaceOnUse" x1="15.5452" y1="29.6789" x2="13.8689" y2="33.4604">
		<stop  offset="0" style="stop-color:#20460E"/>
		<stop  offset="0.2614" style="stop-color:#295513"/>
		<stop  offset="0.7644" style="stop-color:#417D21"/>
		<stop  offset="1" style="stop-color:#4D9228"/>
	</linearGradient>
	<path style="fill-rule:evenodd;clip-rule:evenodd;fill:url(#SVGID_00000108283411723590833710000004813016939339401626_);" d="
		M17.7,30c-3.5-0.3-5.8,1.5-6,2.5c0,0,0.3-0.8,1.4-0.7c0,0,0,0.1-0.1,0.2c0,0,1.3-0.2,1.5-0.3c0,0,0,0.1-0.1,0.2c0,0,1.6,0.2,2-0.4
		c0,0,0,0.1-0.1,0.3C16.6,31.8,18.2,30.8,17.7,30z"/>
	
		<linearGradient id="SVGID_00000001633710674111013850000008999877589378887812_" gradientUnits="userSpaceOnUse" x1="13.1288" y1="43.8554" x2="15.1599" y2="42.9738">
		<stop  offset="0" style="stop-color:#C36929"/>
		<stop  offset="0.2024" style="stop-color:#BB6325"/>
		<stop  offset="0.5185" style="stop-color:#A55119"/>
		<stop  offset="0.9067" style="stop-color:#813405"/>
		<stop  offset="1" style="stop-color:#772C00"/>
	</linearGradient>
	<path style="fill-rule:evenodd;clip-rule:evenodd;fill:url(#SVGID_00000001633710674111013850000008999877589378887812_);" d="
		M15.2,42.2c0.2,0.9,0.4,1.6,0.3,2.1c-0.2,0.4-2.1,0.4-2.4,0c-0.1-0.5,0.1-1.2,0.3-2.1C14,42.2,14.6,42.2,15.2,42.2z"/>
	
		<linearGradient id="SVGID_00000176013074944755705530000002371184495906995596_" gradientUnits="userSpaceOnUse" x1="13.7326" y1="43.4484" x2="14.8969" y2="43.1028">
		<stop  offset="0" style="stop-color:#8D3500"/>
		<stop  offset="0.4031" style="stop-color:#8B3400"/>
		<stop  offset="0.6306" style="stop-color:#823000"/>
		<stop  offset="0.8142" style="stop-color:#752900"/>
		<stop  offset="0.9736" style="stop-color:#612000"/>
		<stop  offset="1" style="stop-color:#5D1E00"/>
	</linearGradient>
	<path style="fill-rule:evenodd;clip-rule:evenodd;fill:url(#SVGID_00000176013074944755705530000002371184495906995596_);" d="
		M14.9,42.2c0,0-1.1,0-1.5,0c1.5,0.9,0.4,2.2,0.4,2.2s1,0.2,1.5-0.2C15.5,43.8,14.9,42.2,14.9,42.2z"/>
	
		<linearGradient id="SVGID_00000167382860958564778580000014636322119691841943_" gradientUnits="userSpaceOnUse" x1="13.1426" y1="41.9199" x2="15.1036" y2="41.3038">
		<stop  offset="0" style="stop-color:#C36929"/>
		<stop  offset="0.2024" style="stop-color:#BB6325"/>
		<stop  offset="0.5185" style="stop-color:#A55119"/>
		<stop  offset="0.9067" style="stop-color:#813405"/>
		<stop  offset="1" style="stop-color:#772C00"/>
	</linearGradient>
	<path style="fill-rule:evenodd;clip-rule:evenodd;fill:url(#SVGID_00000167382860958564778580000014636322119691841943_);" d="
		M15.1,40.6c0.1,0.9,0.3,1.5,0.1,1.9c-0.2,0.3-1.9,0.2-2.1-0.1c0-0.5,0.1-1.1,0.4-1.9C14.1,40.5,14.6,40.5,15.1,40.6z"/>
	
		<linearGradient id="SVGID_00000089574181414200899010000005457209600724035518_" gradientUnits="userSpaceOnUse" x1="13.6695" y1="41.6242" x2="14.8482" y2="41.4001">
		<stop  offset="0" style="stop-color:#8D3500"/>
		<stop  offset="0.4031" style="stop-color:#8B3400"/>
		<stop  offset="0.6306" style="stop-color:#823000"/>
		<stop  offset="0.8142" style="stop-color:#752900"/>
		<stop  offset="0.9736" style="stop-color:#612000"/>
		<stop  offset="1" style="stop-color:#5D1E00"/>
	</linearGradient>
	<path style="fill-rule:evenodd;clip-rule:evenodd;fill:url(#SVGID_00000089574181414200899010000005457209600724035518_);" d="
		M14.9,40.6c0,0-1-0.1-1.4-0.1c1.3,0.9,0.2,2.1,0.2,2.1s0.9,0.2,1.4-0.1C15.3,42.1,14.9,40.6,14.9,40.6z"/>
	
		<linearGradient id="SVGID_00000173149392197600232450000007058151727317296545_" gradientUnits="userSpaceOnUse" x1="13.2788" y1="40.1514" x2="15.1765" y2="39.734">
		<stop  offset="0" style="stop-color:#C36929"/>
		<stop  offset="0.2024" style="stop-color:#BB6325"/>
		<stop  offset="0.5185" style="stop-color:#A55119"/>
		<stop  offset="0.9067" style="stop-color:#813405"/>
		<stop  offset="1" style="stop-color:#772C00"/>
	</linearGradient>
	<path style="fill-rule:evenodd;clip-rule:evenodd;fill:url(#SVGID_00000173149392197600232450000007058151727317296545_);" d="
		M15.2,39.1c0.1,0.8,0.1,1.4,0,1.8c-0.2,0.3-1.7,0.1-1.9-0.3c0-0.4,0.2-1,0.5-1.8C14.2,38.9,14.7,39,15.2,39.1z"/>
	
		<linearGradient id="SVGID_00000170998104752073301910000008982529899060521630_" gradientUnits="userSpaceOnUse" x1="13.7041" y1="39.9404" x2="14.925" y2="39.7988">
		<stop  offset="0" style="stop-color:#8D3500"/>
		<stop  offset="0.4031" style="stop-color:#8B3400"/>
		<stop  offset="0.6306" style="stop-color:#823000"/>
		<stop  offset="0.8142" style="stop-color:#752900"/>
		<stop  offset="0.9736" style="stop-color:#612000"/>
		<stop  offset="1" style="stop-color:#5D1E00"/>
	</linearGradient>
	<path style="fill-rule:evenodd;clip-rule:evenodd;fill:url(#SVGID_00000170998104752073301910000008982529899060521630_);" d="
		M15,39c0,0-0.9-0.1-1.2-0.2c1.1,0.9,0,1.9,0,1.9s0.8,0.2,1.3,0C15.2,40.5,15,39,15,39z"/>
	
		<linearGradient id="SVGID_00000059996403385289510570000007894748076263830156_" gradientUnits="userSpaceOnUse" x1="13.5242" y1="38.539" x2="15.357" y2="38.2674">
		<stop  offset="0" style="stop-color:#C36929"/>
		<stop  offset="0.2024" style="stop-color:#BB6325"/>
		<stop  offset="0.5185" style="stop-color:#A55119"/>
		<stop  offset="0.9067" style="stop-color:#813405"/>
		<stop  offset="1" style="stop-color:#772C00"/>
	</linearGradient>
	<path style="fill-rule:evenodd;clip-rule:evenodd;fill:url(#SVGID_00000059996403385289510570000007894748076263830156_);" d="
		M15.3,37.7c0,0.8,0,1.3-0.1,1.7c-0.2,0.2-1.5,0-1.7-0.4c0-0.4,0.2-0.9,0.5-1.6C14.5,37.5,14.9,37.6,15.3,37.7z"/>
	
		<linearGradient id="SVGID_00000181070605524857474740000004040498719508116896_" gradientUnits="userSpaceOnUse" x1="13.9016" y1="38.39" x2="15.1171" y2="38.2969">
		<stop  offset="0" style="stop-color:#8D3500"/>
		<stop  offset="0.4031" style="stop-color:#8B3400"/>
		<stop  offset="0.6306" style="stop-color:#823000"/>
		<stop  offset="0.8142" style="stop-color:#752900"/>
		<stop  offset="0.9736" style="stop-color:#612000"/>
		<stop  offset="1" style="stop-color:#5D1E00"/>
	</linearGradient>
	<path style="fill-rule:evenodd;clip-rule:evenodd;fill:url(#SVGID_00000181070605524857474740000004040498719508116896_);" d="
		M15.1,37.6c0,0-0.8-0.2-1.1-0.2c0.9,0.9-0.1,1.8-0.1,1.8s0.7,0.3,1.1,0.1C15.3,39,15.1,37.6,15.1,37.6z"/>
	
		<linearGradient id="SVGID_00000183233460874646324010000008567736715888117412_" gradientUnits="userSpaceOnUse" x1="13.8592" y1="37.0759" x2="15.5635" y2="36.9111">
		<stop  offset="0" style="stop-color:#C36929"/>
		<stop  offset="0.2024" style="stop-color:#BB6325"/>
		<stop  offset="0.5185" style="stop-color:#A55119"/>
		<stop  offset="0.9067" style="stop-color:#813405"/>
		<stop  offset="1" style="stop-color:#772C00"/>
	</linearGradient>
	<path style="fill-rule:evenodd;clip-rule:evenodd;fill:url(#SVGID_00000183233460874646324010000008567736715888117412_);" d="
		M15.6,36.4c-0.1,0.7-0.1,1.2-0.2,1.6c-0.2,0.2-1.4-0.1-1.5-0.5c0-0.4,0.3-0.8,0.6-1.4C14.8,36.1,15.2,36.2,15.6,36.4z"/>
	
		<linearGradient id="SVGID_00000145780576692352577680000001365778076794506422_" gradientUnits="userSpaceOnUse" x1="14.2121" y1="36.9687" x2="15.4055" y2="36.9092">
		<stop  offset="0" style="stop-color:#8D3500"/>
		<stop  offset="0.4031" style="stop-color:#8B3400"/>
		<stop  offset="0.6306" style="stop-color:#823000"/>
		<stop  offset="0.8142" style="stop-color:#752900"/>
		<stop  offset="0.9736" style="stop-color:#612000"/>
		<stop  offset="1" style="stop-color:#5D1E00"/>
	</linearGradient>
	<path style="fill-rule:evenodd;clip-rule:evenodd;fill:url(#SVGID_00000145780576692352577680000001365778076794506422_);" d="
		M15.4,36.3c0,0-0.7-0.2-0.9-0.3c0.8,0.9-0.2,1.7-0.2,1.7s0.6,0.3,1,0.2C15.4,37.6,15.4,36.3,15.4,36.3z"/>
	
		<linearGradient id="SVGID_00000059280217842541056370000016612746443787821244_" gradientUnits="userSpaceOnUse" x1="14.25" y1="35.7418" x2="15.8189" y2="35.6654">
		<stop  offset="0" style="stop-color:#C36929"/>
		<stop  offset="0.2024" style="stop-color:#BB6325"/>
		<stop  offset="0.5185" style="stop-color:#A55119"/>
		<stop  offset="0.9067" style="stop-color:#813405"/>
		<stop  offset="1" style="stop-color:#772C00"/>
	</linearGradient>
	<path style="fill-rule:evenodd;clip-rule:evenodd;fill:url(#SVGID_00000059280217842541056370000016612746443787821244_);" d="
		M15.8,35.2c-0.1,0.6-0.1,1.1-0.3,1.4c-0.2,0.2-1.2-0.2-1.3-0.5c0.1-0.3,0.3-0.7,0.6-1.3C15.2,34.9,15.5,35,15.8,35.2z"/>
	
		<linearGradient id="SVGID_00000010276021609054429390000017563024635155719809_" gradientUnits="userSpaceOnUse" x1="14.5876" y1="35.6705" x2="15.6822" y2="35.6407">
		<stop  offset="0" style="stop-color:#8D3500"/>
		<stop  offset="0.4031" style="stop-color:#8B3400"/>
		<stop  offset="0.6306" style="stop-color:#823000"/>
		<stop  offset="0.8142" style="stop-color:#752900"/>
		<stop  offset="0.9736" style="stop-color:#612000"/>
		<stop  offset="1" style="stop-color:#5D1E00"/>
	</linearGradient>
	<path style="fill-rule:evenodd;clip-rule:evenodd;fill:url(#SVGID_00000010276021609054429390000017563024635155719809_);" d="
		M15.7,35.1c0,0-0.6-0.2-0.8-0.3c0.6,0.9-0.3,1.5-0.3,1.5s0.5,0.3,0.9,0.2C15.6,36.3,15.7,35.1,15.7,35.1z"/>
	
		<linearGradient id="SVGID_00000180343492137902629070000003108445901020122041_" gradientUnits="userSpaceOnUse" x1="14.6813" y1="34.5284" x2="16.1339" y2="34.5259">
		<stop  offset="0" style="stop-color:#C36929"/>
		<stop  offset="0.2024" style="stop-color:#BB6325"/>
		<stop  offset="0.5185" style="stop-color:#A55119"/>
		<stop  offset="0.9067" style="stop-color:#813405"/>
		<stop  offset="1" style="stop-color:#772C00"/>
	</linearGradient>
	<path style="fill-rule:evenodd;clip-rule:evenodd;fill:url(#SVGID_00000180343492137902629070000003108445901020122041_);" d="
		M16.2,34.1c-0.1,0.6-0.2,1-0.4,1.3c-0.2,0.2-1.1-0.3-1.2-0.6c0.1-0.3,0.3-0.7,0.6-1.2C15.6,33.8,15.9,33.9,16.2,34.1z"/>
	
		<linearGradient id="SVGID_00000175303316396430259340000001072959417663215234_" gradientUnits="userSpaceOnUse" x1="15.0081" y1="34.4869" x2="16.007" y2="34.4858">
		<stop  offset="0" style="stop-color:#8D3500"/>
		<stop  offset="0.4031" style="stop-color:#8B3400"/>
		<stop  offset="0.6306" style="stop-color:#823000"/>
		<stop  offset="0.8142" style="stop-color:#752900"/>
		<stop  offset="0.9736" style="stop-color:#612000"/>
		<stop  offset="1" style="stop-color:#5D1E00"/>
	</linearGradient>
	<path style="fill-rule:evenodd;clip-rule:evenodd;fill:url(#SVGID_00000175303316396430259340000001072959417663215234_);" d="
		M16,34c0,0-0.5-0.3-0.7-0.4c0.5,0.9-0.4,1.4-0.4,1.4s0.4,0.3,0.8,0.3C15.9,35.1,16,34,16,34z"/>
	
		<linearGradient id="SVGID_00000101815267986956641500000009881085783494449551_" gradientUnits="userSpaceOnUse" x1="15.2109" y1="33.4323" x2="16.429" y2="33.4864">
		<stop  offset="0" style="stop-color:#C36929"/>
		<stop  offset="0.2024" style="stop-color:#BB6325"/>
		<stop  offset="0.5185" style="stop-color:#A55119"/>
		<stop  offset="0.9067" style="stop-color:#813405"/>
		<stop  offset="1" style="stop-color:#772C00"/>
	</linearGradient>
	<path style="fill-rule:evenodd;clip-rule:evenodd;fill:url(#SVGID_00000101815267986956641500000009881085783494449551_);" d="
		M16.5,33.1c-0.2,0.5-0.2,1-0.4,1.2c-0.2,0.1-1-0.3-1-0.6c0.1-0.3,0.3-0.6,0.6-1.1C16,32.8,16.3,32.9,16.5,33.1z"/>
	
		<linearGradient id="SVGID_00000181072208580624746670000012451029702717046184_" gradientUnits="userSpaceOnUse" x1="15.4984" y1="33.4135" x2="16.3381" y2="33.4378">
		<stop  offset="0" style="stop-color:#8D3500"/>
		<stop  offset="0.4031" style="stop-color:#8B3400"/>
		<stop  offset="0.6306" style="stop-color:#823000"/>
		<stop  offset="0.8142" style="stop-color:#752900"/>
		<stop  offset="0.9736" style="stop-color:#612000"/>
		<stop  offset="1" style="stop-color:#5D1E00"/>
	</linearGradient>
	<path style="fill-rule:evenodd;clip-rule:evenodd;fill:url(#SVGID_00000181072208580624746670000012451029702717046184_);" d="
		M16.4,33c0,0-0.5-0.3-0.6-0.4c0.4,0.8-0.4,1.3-0.4,1.3s0.4,0.3,0.7,0.3C16.2,34,16.4,33,16.4,33z"/>
	
		<linearGradient id="SVGID_00000055666927768797592690000014486513802358745010_" gradientUnits="userSpaceOnUse" x1="15.7497" y1="32.448" x2="16.7712" y2="32.5407">
		<stop  offset="0" style="stop-color:#C36929"/>
		<stop  offset="0.2024" style="stop-color:#BB6325"/>
		<stop  offset="0.5185" style="stop-color:#A55119"/>
		<stop  offset="0.9067" style="stop-color:#813405"/>
		<stop  offset="1" style="stop-color:#772C00"/>
	</linearGradient>
	<path style="fill-rule:evenodd;clip-rule:evenodd;fill:url(#SVGID_00000055666927768797592690000014486513802358745010_);" d="
		M16.9,32.2c-0.2,0.5-0.3,0.9-0.4,1.1c-0.2,0.1-0.8-0.4-0.9-0.6c0.1-0.3,0.3-0.5,0.6-0.9C16.5,31.9,16.7,32,16.9,32.2z"/>
	
		<linearGradient id="SVGID_00000107588061257884362520000004782524408593609875_" gradientUnits="userSpaceOnUse" x1="16.0056" y1="32.4457" x2="16.7061" y2="32.4899">
		<stop  offset="0" style="stop-color:#8D3500"/>
		<stop  offset="0.4031" style="stop-color:#8B3400"/>
		<stop  offset="0.6306" style="stop-color:#823000"/>
		<stop  offset="0.8142" style="stop-color:#752900"/>
		<stop  offset="0.9736" style="stop-color:#612000"/>
		<stop  offset="1" style="stop-color:#5D1E00"/>
	</linearGradient>
	<path style="fill-rule:evenodd;clip-rule:evenodd;fill:url(#SVGID_00000107588061257884362520000004782524408593609875_);" d="
		M16.8,32.1c0,0-0.4-0.3-0.5-0.4c0.3,0.8-0.4,1.2-0.4,1.2s0.3,0.3,0.6,0.3C16.6,33,16.8,32.1,16.8,32.1z"/>
	
		<linearGradient id="SVGID_00000096044031528080057840000002177567257744082837_" gradientUnits="userSpaceOnUse" x1="16.2903" y1="31.5678" x2="17.149" y2="31.686">
		<stop  offset="0" style="stop-color:#C36929"/>
		<stop  offset="0.2024" style="stop-color:#BB6325"/>
		<stop  offset="0.5185" style="stop-color:#A55119"/>
		<stop  offset="0.9067" style="stop-color:#813405"/>
		<stop  offset="1" style="stop-color:#772C00"/>
	</linearGradient>
	<path style="fill-rule:evenodd;clip-rule:evenodd;fill:url(#SVGID_00000096044031528080057840000002177567257744082837_);" d="
		M17.3,31.4c-0.2,0.4-0.3,0.8-0.5,1c-0.2,0.1-0.7-0.4-0.7-0.6c0.1-0.2,0.3-0.5,0.6-0.8C17,31.1,17.2,31.2,17.3,31.4z"/>
	
		<linearGradient id="SVGID_00000018944423522730588390000006107953910676608899_" gradientUnits="userSpaceOnUse" x1="16.5191" y1="31.5773" x2="17.1038" y2="31.6366">
		<stop  offset="0" style="stop-color:#8D3500"/>
		<stop  offset="0.4031" style="stop-color:#8B3400"/>
		<stop  offset="0.6306" style="stop-color:#823000"/>
		<stop  offset="0.8142" style="stop-color:#752900"/>
		<stop  offset="0.9736" style="stop-color:#612000"/>
		<stop  offset="1" style="stop-color:#5D1E00"/>
	</linearGradient>
	<path style="fill-rule:evenodd;clip-rule:evenodd;fill:url(#SVGID_00000018944423522730588390000006107953910676608899_);" d="
		M17.3,31.3c0,0-0.3-0.3-0.5-0.4c0.2,0.8-0.5,1-0.5,1s0.3,0.3,0.5,0.3C17,32.1,17.3,31.3,17.3,31.3z"/>
	
		<linearGradient id="SVGID_00000130633625323612017800000009415014729121528740_" gradientUnits="userSpaceOnUse" x1="16.8371" y1="30.7847" x2="17.5506" y2="30.9188">
		<stop  offset="0" style="stop-color:#C36929"/>
		<stop  offset="0.2024" style="stop-color:#BB6325"/>
		<stop  offset="0.5185" style="stop-color:#A55119"/>
		<stop  offset="0.9067" style="stop-color:#813405"/>
		<stop  offset="1" style="stop-color:#772C00"/>
	</linearGradient>
	<path style="fill-rule:evenodd;clip-rule:evenodd;fill:url(#SVGID_00000130633625323612017800000009415014729121528740_);" d="
		M17.8,30.7c-0.2,0.4-0.3,0.7-0.5,0.9c-0.2,0.1-0.6-0.4-0.6-0.6c0.1-0.2,0.3-0.4,0.6-0.7C17.5,30.4,17.6,30.5,17.8,30.7z"/>
	
		<linearGradient id="SVGID_00000022520712335090026520000005550974234534911923_" gradientUnits="userSpaceOnUse" x1="17.0319" y1="30.8021" x2="17.5187" y2="30.872">
		<stop  offset="0" style="stop-color:#8D3500"/>
		<stop  offset="0.4031" style="stop-color:#8B3400"/>
		<stop  offset="0.6306" style="stop-color:#823000"/>
		<stop  offset="0.8142" style="stop-color:#752900"/>
		<stop  offset="0.9736" style="stop-color:#612000"/>
		<stop  offset="1" style="stop-color:#5D1E00"/>
	</linearGradient>
	<path style="fill-rule:evenodd;clip-rule:evenodd;fill:url(#SVGID_00000022520712335090026520000005550974234534911923_);" d="
		M17.7,30.6c0,0-0.3-0.3-0.4-0.4c0.2,0.7-0.5,0.9-0.5,0.9s0.2,0.3,0.4,0.3C17.4,31.4,17.7,30.6,17.7,30.6z"/>
	
		<linearGradient id="SVGID_00000136397629301918852440000009427233015998458792_" gradientUnits="userSpaceOnUse" x1="17.3719" y1="30.0901" x2="17.9663" y2="30.2338">
		<stop  offset="0" style="stop-color:#C36929"/>
		<stop  offset="0.2024" style="stop-color:#BB6325"/>
		<stop  offset="0.5185" style="stop-color:#A55119"/>
		<stop  offset="0.9067" style="stop-color:#813405"/>
		<stop  offset="1" style="stop-color:#772C00"/>
	</linearGradient>
	<path style="fill-rule:evenodd;clip-rule:evenodd;fill:url(#SVGID_00000136397629301918852440000009427233015998458792_);" d="
		M18.2,30c-0.2,0.4-0.3,0.6-0.5,0.8c-0.1,0.1-0.5-0.4-0.5-0.6c0.1-0.2,0.3-0.4,0.6-0.6C17.9,29.7,18.1,29.9,18.2,30z"/>
	
		<linearGradient id="SVGID_00000040535114706946661850000010940044953935648173_" gradientUnits="userSpaceOnUse" x1="17.5392" y1="30.1132" x2="17.9438" y2="30.1906">
		<stop  offset="0" style="stop-color:#8D3500"/>
		<stop  offset="0.4031" style="stop-color:#8B3400"/>
		<stop  offset="0.6306" style="stop-color:#823000"/>
		<stop  offset="0.8142" style="stop-color:#752900"/>
		<stop  offset="0.9736" style="stop-color:#612000"/>
		<stop  offset="1" style="stop-color:#5D1E00"/>
	</linearGradient>
	<path style="fill-rule:evenodd;clip-rule:evenodd;fill:url(#SVGID_00000040535114706946661850000010940044953935648173_);" d="
		M18.1,30c0,0-0.2-0.3-0.3-0.4c0.1,0.7-0.5,0.8-0.5,0.8s0.2,0.3,0.4,0.3C17.8,30.6,18.1,30,18.1,30z"/>
	
		<linearGradient id="SVGID_00000170248173425596575900000013185709174077454243_" gradientUnits="userSpaceOnUse" x1="22.8645" y1="31.807" x2="18.4158" y2="31.807">
		<stop  offset="0" style="stop-color:#7CB826"/>
		<stop  offset="0.6814" style="stop-color:#5D9F27"/>
		<stop  offset="1" style="stop-color:#4D9228"/>
	</linearGradient>
	<path style="fill-rule:evenodd;clip-rule:evenodd;fill:url(#SVGID_00000170248173425596575900000013185709174077454243_);" d="
		M19,30.7c-0.5-0.5-1-0.7-0.8-1.1c-0.4-0.5,1.4-0.9,2.8-0.1s2.5,2.7,2.1,5c0,0-0.9-1-1.3-1.9c0,0.2-0.1,0.3-0.1,0.7
		C21,32.5,21,32,21,31.6c0,0-0.1,0.5,0,0.9c0,0-0.8-0.6-1-1.3c0,0-0.1,0.3-0.1,0.6C19.5,31.4,19.3,31,19,30.7z"/>
	
		<linearGradient id="SVGID_00000103238486244662097920000017312917024686701192_" gradientUnits="userSpaceOnUse" x1="23.3573" y1="34.0457" x2="18.7366" y2="29.4704">
		<stop  offset="0" style="stop-color:#4D9228"/>
		<stop  offset="0.2356" style="stop-color:#417D21"/>
		<stop  offset="0.7386" style="stop-color:#295513"/>
		<stop  offset="1" style="stop-color:#20460E"/>
	</linearGradient>
	<path style="fill-rule:evenodd;clip-rule:evenodd;fill:url(#SVGID_00000103238486244662097920000017312917024686701192_);" d="
		M19,30.7c-0.5-0.5-1-0.7-0.8-1.1c0.2-0.2,4.3-0.1,4.9,4.9c0,0-0.9-1-1.3-1.9c0,0.2-0.1,0.3-0.1,0.7C21,32.5,21,32,21,31.6
		c0,0-0.1,0.5,0,0.9c0,0-0.8-0.6-1-1.3c0,0-0.1,0.3-0.1,0.6C19.5,31.4,19.3,31,19,30.7z"/>
	
		<linearGradient id="SVGID_00000041291671076671553220000006142025317567309737_" gradientUnits="userSpaceOnUse" x1="20.4754" y1="27.7498" x2="22.2772" y2="29.5065">
		<stop  offset="0" style="stop-color:#20460E"/>
		<stop  offset="0.2614" style="stop-color:#295513"/>
		<stop  offset="0.7644" style="stop-color:#417D21"/>
		<stop  offset="1" style="stop-color:#4D9228"/>
	</linearGradient>
	<path style="fill-rule:evenodd;clip-rule:evenodd;fill:url(#SVGID_00000041291671076671553220000006142025317567309737_);" d="
		M20.3,27.7c-0.1-0.1,0.1-0.2,0.3-0.2c0,0,1.5,0.9,1.5,2.3C21.6,29.4,20.9,28.2,20.3,27.7z"/>
	
		<linearGradient id="SVGID_00000081605392982855176530000008277734703788273847_" gradientUnits="userSpaceOnUse" x1="20.2589" y1="27.8646" x2="18.3898" y2="29.7708">
		<stop  offset="0" style="stop-color:#75B628"/>
		<stop  offset="0.4454" style="stop-color:#4A7D1B"/>
		<stop  offset="0.8109" style="stop-color:#2C5512"/>
		<stop  offset="1" style="stop-color:#20460E"/>
	</linearGradient>
	<path style="fill-rule:evenodd;clip-rule:evenodd;fill:url(#SVGID_00000081605392982855176530000008277734703788273847_);" d="
		M20.6,27c0.7,0.4,1.3,1.3,1.5,2.8c0,0-0.3-1.7-1.4-1.9c0,0,0.3,0.2,0.3,0.5c0,0-0.5-0.3-1.1-0.2c0,0,0.4,0.2,0.5,0.6
		c0,0-0.9,0-1.3,0.3c-0.4,0.3-0.6,1.1-1,1c-0.6-0.2-1.1-2.4-0.6-3.1c0,0,0,0.3,0.1,0.4c0,0,0.6-0.9,1.6-1c0,0-0.2,0.2-0.2,0.3
		C19.1,26.6,19.8,26.5,20.6,27z"/>
	
		<linearGradient id="SVGID_00000075880053694917283280000016426668649962352531_" gradientUnits="userSpaceOnUse" x1="19.2801" y1="26.9374" x2="18.5386" y2="30.0911">
		<stop  offset="0" style="stop-color:#7CB826"/>
		<stop  offset="0.6814" style="stop-color:#5D9F27"/>
		<stop  offset="1" style="stop-color:#4D9228"/>
	</linearGradient>
	<path style="fill-rule:evenodd;clip-rule:evenodd;fill:url(#SVGID_00000075880053694917283280000016426668649962352531_);" d="
		M20.6,27c0.2,0.1,0.3,0.3,0.5,0.4c-0.9-0.6-2-0.3-2.5,0.1c-0.9,0.6-1.1,2-0.6,2.6c-0.6-0.2-1.1-2.4-0.6-3.1c0,0,0,0.3,0.1,0.4
		c0,0,0.6-0.9,1.6-1c0,0-0.2,0.2-0.2,0.3C19.1,26.6,19.8,26.5,20.6,27z"/>
	
		<linearGradient id="SVGID_00000044178121947026743640000003299833609023409333_" gradientUnits="userSpaceOnUse" x1="17.6202" y1="28.2283" x2="12.3024" y2="28.2283">
		<stop  offset="0" style="stop-color:#4D9228"/>
		<stop  offset="0.3186" style="stop-color:#5D9F27"/>
		<stop  offset="1" style="stop-color:#7CB826"/>
	</linearGradient>
	<path style="fill-rule:evenodd;clip-rule:evenodd;fill:url(#SVGID_00000044178121947026743640000003299833609023409333_);" d="
		M17.8,29.9c0.5-0.2-0.5-2.4-2-3.1c-1.5-0.7-3.2-0.3-3.6,0c0.7,0,1,0.1,1.3,0.3c0,0-0.2,0-0.4,0c0,0,0.8,1.1,1.4,1.3l-0.3,0
		c0,0,0.7,1,1.9,0.9l-0.3,0.2C15.9,29.5,17.4,30.3,17.8,29.9z"/>
	
		<linearGradient id="SVGID_00000146489320448872613390000013154728503404303747_" gradientUnits="userSpaceOnUse" x1="16.7315" y1="30.2492" x2="13.5512" y2="26.2743">
		<stop  offset="0" style="stop-color:#20460E"/>
		<stop  offset="0.1891" style="stop-color:#2C5512"/>
		<stop  offset="0.5546" style="stop-color:#4A7D1B"/>
		<stop  offset="1" style="stop-color:#75B628"/>
	</linearGradient>
	<path style="fill-rule:evenodd;clip-rule:evenodd;fill:url(#SVGID_00000146489320448872613390000013154728503404303747_);" d="
		M17.8,29.9c-1-2-2.7-3.7-5.5-3.1c0.7,0,1,0.1,1.3,0.3c0,0-0.2,0-0.4,0c0,0,0.8,1.1,1.4,1.3l-0.3,0c0,0,0.7,1,1.9,0.9l-0.3,0.2
		C15.9,29.5,17.4,30.3,17.8,29.9z"/>
	
		<linearGradient id="SVGID_00000181767593920959629550000016457255554283301768_" gradientUnits="userSpaceOnUse" x1="19.0007" y1="37.3196" x2="19.0007" y2="30.0616">
		<stop  offset="0" style="stop-color:#7CB826"/>
		<stop  offset="0.6814" style="stop-color:#5D9F27"/>
		<stop  offset="1" style="stop-color:#4D9228"/>
	</linearGradient>
	<path style="fill-rule:evenodd;clip-rule:evenodd;fill:url(#SVGID_00000181767593920959629550000016457255554283301768_);" d="
		M19.5,34.1c-0.2,0.3-0.3,0.5-0.3,1c-0.2-0.5-0.4-2-0.6-2.5c-0.1,0.2-0.3,0.3-0.3,0.9c-0.2-0.4-0.2-0.9-0.4-1.3
		c-0.1,0.1-0.1,0.2-0.1,0.3c-0.6-0.4-0.6-2.9,0.1-2.6c0.4-0.2,1.6,0.1,2.2,1.5c0.4,0.9,0.8,4.1-0.3,5.9
		C19.9,37.3,19.4,35.6,19.5,34.1z"/>
	
		<linearGradient id="SVGID_00000006697086845475696800000012769413325685356961_" gradientUnits="userSpaceOnUse" x1="18.8074" y1="37.3196" x2="18.8074" y2="30.1504">
		<stop  offset="0" style="stop-color:#4D9228"/>
		<stop  offset="0.2356" style="stop-color:#417D21"/>
		<stop  offset="0.7386" style="stop-color:#295513"/>
		<stop  offset="1" style="stop-color:#20460E"/>
	</linearGradient>
	<path style="fill-rule:evenodd;clip-rule:evenodd;fill:url(#SVGID_00000006697086845475696800000012769413325685356961_);" d="
		M19.5,34.2c-0.2,0.3-0.2,0.5-0.3,1c-0.4-0.6-0.6-1.9-0.6-2.5c-0.1,0.3-0.2,0.4-0.3,0.9c-0.2-0.4-0.3-0.8-0.4-1.3
		c-0.1,0.1-0.1,0.2-0.1,0.3c-0.6-0.4-0.6-2.9,0.1-2.6c1.7,0.9,2.8,4.6,1.9,7.4C19.9,37.3,19.3,35.4,19.5,34.2z"/>
</g>
<path class="st0" d="M10.3,52.3H8.6v-2.9c0-0.1-0.1-0.2-0.2-0.2H7.8c-0.1,0-0.2,0-0.2,0.2v3.5c0,0.1,0,0.2,0.2,0.2h2.5
	c0.1,0,0.2-0.1,0.2-0.2v-0.5C10.4,52.3,10.4,52.3,10.3,52.3L10.3,52.3z M117.9,49.2h-0.6c-0.1,0-0.2,0-0.3,0.2l-0.7,1.3l-0.7-1.3
	c-0.1-0.2-0.1-0.2-0.3-0.2h-0.7c-0.1,0-0.1,0.1-0.1,0.2l1.3,2.3v1.3c0,0.1,0.1,0.2,0.2,0.2h0.6c0.1,0,0.2,0,0.2-0.2v-1.3l1.2-2.3
	C118.1,49.3,118,49.2,117.9,49.2L117.9,49.2z M114.8,52.3c0.1,0,0.2,0.1,0.2,0.2v0.5c0,0.1,0,0.2-0.2,0.2h-2.5
	c-0.1,0-0.2-0.1-0.2-0.2v-3.5c0-0.1,0.1-0.2,0.2-0.2h0.6c0.1,0,0.2,0,0.2,0.2v2.9H114.8L114.8,52.3z M110.7,50.8
	c-0.2-0.1-1.1-0.2-1.1-0.6c0-0.3,0.3-0.3,0.5-0.3c0.2,0,0.4,0.1,0.5,0.2c0.1,0.1,0.1,0.1,0.1,0.2c0,0.1,0,0.2,0.2,0.2h0.6
	c0.1,0,0.2,0,0.2-0.2c0-0.8-0.8-1.1-1.6-1.1c-0.7,0-1.4,0.4-1.4,1.2c0,0.7,0.5,1,1.1,1.2c0.5,0.2,1,0.2,1,0.5c0,0.3-0.3,0.4-0.6,0.4
	c-0.2,0-0.5-0.1-0.6-0.2c-0.1-0.1-0.1-0.2-0.1-0.2c0-0.1-0.1-0.2-0.2-0.2h-0.6c-0.1,0-0.2,0-0.2,0.2c0,0.8,0.8,1.2,1.6,1.2
	c0.9,0,1.6-0.4,1.6-1.2C111.7,51.1,111.1,51,110.7,50.8L110.7,50.8z M108,49.2h-0.6c-0.1,0-0.2,0-0.2,0.2v2.4c0,0.4-0.2,0.6-0.6,0.6
	c-0.4,0-0.6-0.2-0.6-0.6v-2.4c0-0.1-0.1-0.2-0.2-0.2h-0.6c-0.1,0-0.2,0-0.2,0.2v2.5c0,0.9,0.9,1.3,1.6,1.3c0.7,0,1.6-0.3,1.6-1.3
	v-2.5C108.1,49.2,108.1,49.2,108,49.2L108,49.2z M104.5,50.5c0-0.9-0.9-1.3-1.6-1.3s-1.6,0.4-1.6,1.3v1.4c0,0.9,0.9,1.3,1.6,1.3
	s1.6-0.4,1.6-1.3V50.5L104.5,50.5z M103.6,51.8c0,0.4-0.3,0.6-0.7,0.6c-0.4,0-0.7-0.2-0.7-0.6v-1.2c0-0.4,0.3-0.6,0.7-0.6
	c0.4,0,0.7,0.2,0.7,0.6V51.8L103.6,51.8z M100.8,52.3h-0.4V50h0.4c0.1,0,0.2-0.1,0.2-0.2v-0.5c0-0.1,0-0.2-0.2-0.2h-1.6
	c-0.1,0-0.2,0.1-0.2,0.2v0.5c0,0.1,0,0.2,0.2,0.2h0.4v2.3h-0.4c-0.1,0-0.2,0.1-0.2,0.2v0.5c0,0.1,0,0.2,0.2,0.2h1.7
	c0.1,0,0.2-0.1,0.2-0.2v-0.5C101,52.3,100.9,52.3,100.8,52.3L100.8,52.3z M98.6,52.9l-0.8-1.2c0.4-0.1,0.8-0.6,0.8-1.2
	c0-0.4-0.1-0.7-0.3-0.9c-0.2-0.2-0.5-0.4-1.2-0.4h-1.5c-0.1,0-0.2,0.1-0.2,0.2v3.5c0,0.1,0.1,0.2,0.2,0.2h0.6c0.1,0,0.2,0,0.2-0.2
	V50h0.8c0.3,0,0.5,0.2,0.5,0.5c0,0.3-0.3,0.5-0.6,0.5H97c-0.1,0-0.2,0.1-0.2,0.2v0.5c0,0.2,0,0.2,0.1,0.3l0.6,1
	c0.1,0.1,0.2,0.2,0.3,0.2h0.7C98.6,53.1,98.7,53,98.6,52.9L98.6,52.9z M94.8,52.3h-1.9v-0.8h1.6c0.1,0,0.2-0.1,0.2-0.2v-0.5
	c0-0.1,0-0.2-0.2-0.2h-1.6V50h1.8c0.1,0,0.2-0.1,0.2-0.2v-0.5c0-0.1,0-0.2-0.2-0.2h-2.5c-0.1,0-0.2,0.1-0.2,0.2v3.5
	c0,0.1,0,0.2,0.2,0.2h2.6c0.1,0,0.2-0.1,0.2-0.2v-0.5C95,52.3,94.9,52.3,94.8,52.3L94.8,52.3z M90.5,50.8c-0.2-0.1-1.1-0.2-1.1-0.6
	c0-0.3,0.3-0.3,0.5-0.3c0.2,0,0.4,0.1,0.5,0.2c0.1,0.1,0.1,0.1,0.1,0.2c0,0.1,0,0.2,0.2,0.2h0.6c0.1,0,0.2,0,0.2-0.2
	c0-0.8-0.8-1.1-1.6-1.1c-0.7,0-1.4,0.4-1.4,1.2c0,0.7,0.5,1,1.1,1.2c0.5,0.2,1,0.2,1,0.5c0,0.3-0.3,0.4-0.6,0.4
	c-0.2,0-0.5-0.1-0.6-0.2c-0.1-0.1-0.1-0.2-0.1-0.2c0-0.1-0.1-0.2-0.2-0.2h-0.6c-0.1,0-0.2,0-0.2,0.2c0,0.8,0.8,1.2,1.6,1.2
	c0.9,0,1.6-0.4,1.6-1.2C91.5,51.1,90.9,51,90.5,50.8L90.5,50.8z M86.4,50.9h-1.3c-0.1,0-0.2,0.1-0.2,0.2v0.5c0,0.1,0,0.2,0.2,0.2
	h0.5c0,0.5-0.3,0.6-0.7,0.6c-0.4,0-0.6-0.2-0.6-0.6v-1.2c0-0.4,0.3-0.6,0.6-0.6c0.4,0,0.6,0.2,0.7,0.4c0,0.1,0,0.2,0.2,0.2h0.6
	c0.1,0,0.2,0,0.2-0.2c0-0.8-0.8-1.2-1.6-1.2c-0.7,0-1.6,0.4-1.6,1.3v1.4c0,0.9,0.9,1.3,1.6,1.3c0.7,0,1.5-0.4,1.6-1.2v-0.9
	C86.6,51,86.5,50.9,86.4,50.9L86.4,50.9z M82.7,49.2h-0.6c-0.1,0-0.2,0-0.2,0.2v2l-1.2-2c-0.1-0.1-0.1-0.2-0.3-0.2h-0.6
	c-0.1,0-0.2,0.1-0.2,0.2v3.5c0,0.1,0.1,0.2,0.2,0.2h0.6c0.1,0,0.2,0,0.2-0.2v-2.1l1.2,2c0.1,0.1,0.1,0.2,0.3,0.2h0.5
	c0.1,0,0.2-0.1,0.2-0.2v-3.5C82.9,49.2,82.8,49.2,82.7,49.2L82.7,49.2z M79,52.3h-0.4V50H79c0.1,0,0.2-0.1,0.2-0.2v-0.5
	c0-0.1,0-0.2-0.2-0.2h-1.6c-0.1,0-0.2,0.1-0.2,0.2v0.5c0,0.1,0,0.2,0.2,0.2h0.4v2.3h-0.4c-0.1,0-0.2,0.1-0.2,0.2v0.5
	c0,0.1,0,0.2,0.2,0.2H79c0.1,0,0.2-0.1,0.2-0.2v-0.5C79.2,52.3,79.2,52.3,79,52.3L79,52.3z M76.5,49.2H76c-0.2,0-0.2,0.1-0.3,0.2
	l-0.8,1.4l-0.8-1.4c0-0.1-0.1-0.2-0.3-0.2h-0.6c-0.1,0-0.2,0.1-0.2,0.2v3.5c0,0.1,0.1,0.2,0.2,0.2h0.6c0.1,0,0.2,0,0.2-0.2v-2l0.6,1
	c0,0,0.1,0.1,0.2,0.1h0.3c0.1,0,0.1-0.1,0.2-0.1l0.6-1v2c0,0.1,0.1,0.2,0.2,0.2h0.6c0.1,0,0.2,0,0.2-0.2v-3.5
	C76.7,49.3,76.7,49.2,76.5,49.2L76.5,49.2z M72.6,52.9l-0.8-1.2c0.4-0.1,0.8-0.6,0.8-1.2c0-0.4-0.1-0.7-0.3-0.9
	c-0.2-0.2-0.5-0.4-1.2-0.4h-1.5c-0.1,0-0.2,0.1-0.2,0.2v3.5c0,0.1,0.1,0.2,0.2,0.2h0.6c0.1,0,0.2,0,0.2-0.2V50h0.8
	c0.3,0,0.5,0.2,0.5,0.5c0,0.3-0.3,0.5-0.6,0.5H71c-0.1,0-0.2,0.1-0.2,0.2v0.5c0,0.2,0,0.2,0.1,0.3l0.6,1c0.1,0.1,0.2,0.2,0.3,0.2
	h0.7C72.6,53.1,72.6,53,72.6,52.9L72.6,52.9z M69.1,52.9l-1.3-3.5c-0.1-0.1-0.1-0.2-0.2-0.2H67c-0.1,0-0.2,0.1-0.2,0.2l-1.3,3.5
	c0,0.1,0,0.2,0.1,0.2h0.6c0.1,0,0.2,0,0.2-0.2l0.2-0.5H68l0.2,0.5c0,0.1,0.1,0.2,0.2,0.2H69C69.1,53.1,69.1,53,69.1,52.9L69.1,52.9z
	 M66.8,51.6l0.4-1.3l0.4,1.3H66.8L66.8,51.6z M65.5,49.2c0.1,0,0.1,0.1,0.1,0.2L64.5,53c0,0,0,0.1-0.2,0.1h-0.5
	c-0.2,0-0.2-0.1-0.2-0.1l-0.6-1.9L62.5,53c0,0,0,0.1-0.2,0.1h-0.5c-0.1,0-0.2-0.1-0.2-0.1l-1.1-3.6c0-0.1,0-0.2,0.1-0.2h0.6
	c0.2,0,0.2,0.1,0.2,0.2l0.6,2l0.6-2c0-0.1,0.1-0.2,0.2-0.2h0.4c0.1,0,0.2,0.1,0.2,0.2l0.6,2l0.6-2c0-0.1,0.1-0.2,0.2-0.2H65.5
	L65.5,49.2z M58.7,52.3H57v-2.9c0-0.1-0.1-0.2-0.2-0.2h-0.6c-0.1,0-0.2,0-0.2,0.2v3.5c0,0.1,0,0.2,0.2,0.2h2.5
	c0.1,0,0.2-0.1,0.2-0.2v-0.5C58.9,52.3,58.9,52.3,58.7,52.3L58.7,52.3z M55.8,52.9l-1.3-3.5c-0.1-0.1-0.1-0.2-0.2-0.2h-0.6
	c-0.1,0-0.2,0.1-0.2,0.2l-1.3,3.5c0,0.1,0,0.2,0.1,0.2h0.6c0.1,0,0.2,0,0.2-0.2l0.2-0.5h1.4l0.2,0.5c0,0.1,0.1,0.2,0.2,0.2h0.6
	C55.9,53.1,55.9,53,55.8,52.9L55.8,52.9z M53.6,51.6l0.4-1.3l0.4,1.3H53.6L53.6,51.6z M51.5,51.1c0.1,0,0.4-0.2,0.4-0.8
	c0-0.6-0.4-1.1-1.4-1.1h-1.6c-0.1,0-0.2,0.1-0.2,0.2v3.5c0,0.1,0,0.2,0.2,0.2h1.7c0.8,0,1.4-0.4,1.4-1.1
	C52.1,51.3,51.6,51.1,51.5,51.1L51.5,51.1z M50.7,52.3h-1V50h0.9c0.3,0,0.5,0.1,0.5,0.3c0,0.2-0.1,0.4-0.5,0.4h-0.1
	c-0.1,0-0.2,0.1-0.2,0.2v0.4c0,0.1,0,0.2,0.2,0.2h0.1c0.3,0,0.5,0.1,0.5,0.4C51.1,52.1,51,52.3,50.7,52.3L50.7,52.3z M48.2,50.5
	c0-0.9-0.9-1.3-1.6-1.3c-0.7,0-1.6,0.4-1.6,1.3v1.4c0,0.9,0.9,1.3,1.6,1.3c0.7,0,1.6-0.4,1.6-1.3V50.5L48.2,50.5z M47.3,51.8
	c0,0.4-0.3,0.6-0.7,0.6c-0.4,0-0.7-0.2-0.7-0.6v-1.2c0-0.4,0.3-0.6,0.7-0.6c0.4,0,0.7,0.2,0.7,0.6V51.8L47.3,51.8z M44.6,52.3h-1.7
	v-2.9c0-0.1-0.1-0.2-0.2-0.2h-0.6c-0.1,0-0.2,0-0.2,0.2v3.5c0,0.1,0,0.2,0.2,0.2h2.5c0.1,0,0.2-0.1,0.2-0.2v-0.5
	C44.8,52.3,44.8,52.3,44.6,52.3L44.6,52.3z M41.3,50.9H40c-0.1,0-0.2,0.1-0.2,0.2v0.5c0,0.1,0,0.2,0.2,0.2h0.5
	c0,0.5-0.3,0.6-0.7,0.6c-0.4,0-0.6-0.2-0.6-0.6v-1.2c0-0.4,0.3-0.6,0.6-0.6c0.4,0,0.6,0.2,0.7,0.4c0,0.1,0,0.2,0.2,0.2h0.6
	c0.1,0,0.2,0,0.2-0.2c0-0.8-0.8-1.2-1.6-1.2c-0.7,0-1.6,0.4-1.6,1.3v1.4c0,0.9,0.9,1.3,1.6,1.3c0.7,0,1.5-0.4,1.6-1.2v-0.9
	C41.5,51,41.5,50.9,41.3,50.9L41.3,50.9z M36.2,52.3h-1.9v-0.8h1.6c0.1,0,0.2-0.1,0.2-0.2v-0.5c0-0.1,0-0.2-0.2-0.2h-1.6V50h1.8
	c0.1,0,0.2-0.1,0.2-0.2v-0.5c0-0.1,0-0.2-0.2-0.2h-2.5c-0.1,0-0.2,0.1-0.2,0.2v3.5c0,0.1,0,0.2,0.2,0.2h2.6c0.1,0,0.2-0.1,0.2-0.2
	v-0.5C36.4,52.3,36.3,52.3,36.2,52.3L36.2,52.3z M33.1,49.2h-0.8c-0.1,0-0.2,0-0.3,0.1l-1.2,1.3v-1.3c0-0.1-0.1-0.2-0.2-0.2h-0.6
	c-0.1,0-0.2,0-0.2,0.2v3.5c0,0.1,0.1,0.2,0.2,0.2h0.6c0.1,0,0.2,0,0.2-0.2v-1l0.4-0.4c0.3,0.5,0.8,1.4,0.8,1.4
	c0.1,0.1,0.2,0.2,0.3,0.2H33c0.1,0,0.1-0.1,0.1-0.2l-1.3-2.1l1.3-1.4C33.2,49.3,33.2,49.2,33.1,49.2L33.1,49.2z M29.6,52.9l-1.3-3.5
	c-0.1-0.1-0.1-0.2-0.2-0.2h-0.6c-0.1,0-0.2,0.1-0.2,0.2L26,52.9c0,0.1,0,0.2,0.1,0.2h0.6c0.1,0,0.2,0,0.2-0.2l0.2-0.5h1.4l0.2,0.5
	c0,0.1,0.1,0.2,0.2,0.2h0.6C29.7,53.1,29.7,53,29.6,52.9L29.6,52.9z M27.4,51.6l0.4-1.3l0.4,1.3H27.4L27.4,51.6z M26.1,49.2
	c0.1,0,0.2,0.1,0.2,0.2v0.5c0,0.1,0,0.2-0.2,0.2h-0.9v2.9c0,0.1-0.1,0.2-0.2,0.2h-0.6c-0.1,0-0.2,0-0.2-0.2V50h-0.9
	c-0.1,0-0.2-0.1-0.2-0.2v-0.5c0-0.1,0-0.2,0.2-0.2H26.1L26.1,49.2z M20.4,50.8c-0.2-0.1-1.1-0.2-1.1-0.6c0-0.3,0.3-0.3,0.5-0.3
	c0.2,0,0.4,0.1,0.5,0.2c0.1,0.1,0.1,0.1,0.1,0.2c0,0.1,0,0.2,0.2,0.2h0.6c0.1,0,0.2,0,0.2-0.2c0-0.8-0.8-1.1-1.6-1.1
	c-0.7,0-1.4,0.4-1.4,1.2c0,0.7,0.5,1,1.1,1.2c0.5,0.2,1,0.2,1,0.5c0,0.3-0.3,0.4-0.6,0.4c-0.2,0-0.5-0.1-0.6-0.2
	c-0.1-0.1-0.1-0.2-0.1-0.2c0-0.1-0.1-0.2-0.2-0.2h-0.6c-0.1,0-0.2,0-0.2,0.2c0,0.8,0.8,1.2,1.6,1.2c0.9,0,1.6-0.4,1.6-1.2
	C21.5,51.1,20.8,51,20.4,50.8L20.4,50.8z M17.9,49.2h-0.4c-0.1,0-0.2,0.1-0.2,0.2v1.3c0,0.1,0,0.2,0.2,0.2h0.4
	c0.1,0,0.2-0.1,0.2-0.2v-1.3C18.1,49.3,18,49.2,17.9,49.2L17.9,49.2z M16.9,49.2h-2.7c-0.1,0-0.2,0.1-0.2,0.2v0.5
	c0,0.1,0,0.2,0.2,0.2h0.9v2.9c0,0.1,0.1,0.2,0.2,0.2h0.6c0.1,0,0.2,0,0.2-0.2V50h0.9c0.1,0,0.2-0.1,0.2-0.2v-0.5
	C17.1,49.3,17,49.2,16.9,49.2L16.9,49.2z M13.6,52.3h-1.9v-0.8h1.6c0.1,0,0.2-0.1,0.2-0.2v-0.5c0-0.1,0-0.2-0.2-0.2h-1.6V50h1.8
	c0.1,0,0.2-0.1,0.2-0.2v-0.5c0-0.1,0-0.2-0.2-0.2H11c-0.1,0-0.2,0.1-0.2,0.2v3.5c0,0.1,0,0.2,0.2,0.2h2.6c0.1,0,0.2-0.1,0.2-0.2
	v-0.5C13.8,52.3,13.8,52.3,13.6,52.3z"/>
</svg>
